<?xml version="1.0" encoding="utf-8"?>
<!-- Generator: Adobe Illustrator 27.5.0, SVG Export Plug-In . SVG Version: 6.00 Build 0)  -->
<svg version="1.1" xmlns="http://www.w3.org/2000/svg" xmlns:xlink="http://www.w3.org/1999/xlink" x="0px" y="0px"
	 viewBox="0 0 2500 2000" style="enable-background:new 0 0 2500 2000;" xml:space="preserve">
<g id="BG">
	<g>
		<rect x="0" y="0" style="fill:#FFFFFF;" width="2500" height="2000"/>
		<ellipse style="opacity:0.29;fill:#FBB040;" cx="1336.194" cy="835.351" rx="750.432" ry="637.797"/>
	</g>
</g>
<g id="Layer_1">
	<g>
		<ellipse style="opacity:0.29;fill:#FBB040;" cx="1374.231" cy="1732.784" rx="795.204" ry="138.558"/>
		<g>
			<g>
				<path style="fill:#FF8200;" d="M1738.22,1169.135c31.646,293.915-213.102,561.295-546.661,597.21
					C858,1802.26,561.942,1593.11,530.296,1299.195c-27.009-250.848,147.179-482.774,406.345-567.158
					c72.243-23.522,123.832,3.951,138.298,0.743c13.948-3.093,28.309-36.398,120.516-33.387
					C1478.438,708.634,1710.385,910.621,1738.22,1169.135z"/>
				<path style="opacity:0.22;fill:#FF8200;" d="M1565.756,1552.393c-58.212,16.653-118.969,24.843-179.459,25.924
					c-124.43,2.225-253.127-25.298-360.157-90.423c-52.503-31.948-99.066-73.258-135.21-123.078
					c-46.23-63.724-79.687-136.463-97.864-213.053c-18.282-77.029-23.818-159.51-12.549-238.003
					c6.648-46.306,22.13-89.433,40.89-131.452c-193.548,107.664-313.882,305.403-291.111,516.886
					c31.646,293.915,327.704,503.065,661.263,467.15c183.443-19.752,340.003-109.524,438.522-235.203
					C1608.834,1538.936,1587.358,1546.213,1565.756,1552.393z"/>
				<path style="opacity:0.46;fill:#FF8200;" d="M1183.66,774.72c-3.335-22.291-48.956-33.939-101.896-26.017
					c-52.94,7.922-93.152,32.414-89.817,54.705c3.336,22.291,48.956,33.938,101.896,26.017
					C1146.783,821.503,1186.996,797.011,1183.66,774.72z M1094.968,787.194c-1.504,5.347-4.854,9.683-9.514,12.665
					c-4.036,2.582-8.937,3.595-13.647,3.887c-4.156,0.258-8.525-0.344-12.514-1.501c-4.654-1.35-8.542-3.497-12.314-6.457
					c-2.095-1.644-2.902-4.745-3.016-7.282c-0.123-2.742,1.215-5.319,3.016-7.282c1.739-1.894,4.756-3.016,7.282-3.016
					c2.943,0,4.999,1.236,7.213,2.966l-1.796-1.388c1.104,0.834,2.337,1.448,3.581,2.042c1.483,0.519,2.998,0.925,4.545,1.208
					c1.325,0.111,2.651,0.125,3.977,0.047c0.807-0.153,1.597-0.367,2.378-0.618c0.249-0.135,0.497-0.276,0.738-0.426
					c0.131-0.221,0.273-0.436,0.389-0.666c1.71-5.295,7.152-8.064,12.491-6.848C1093.177,775.757,1096.426,782.012,1094.968,787.194
					z"/>
				<path style="fill:#49C00F;" d="M893.519,552.234c27.94-16.311,40.461-18.75,62.601-16.705
					c35.643,46.351,109.687,191.314,133.818,244.396c8.579,18.872-17.692,29.929-35.564,20.993
					c-1.974-0.987-43.328-96.986-61.443-124.288C981.558,659.488,942.848,585.469,893.519,552.234z"/>
				<path style="opacity:0.17;fill:#15A208;" d="M1049.313,776.224c-8.596-25.615-20.659-49.825-32.578-74.028
					c-24.063-48.859-50.922-96.307-83.148-140.289c-3.765-5.139,0.04-13.961,6.155-15.127c6.959-1.327,13.692-3.621,19.399-7.203
					c-1.03-1.41-2.045-2.781-3.019-4.049c-22.141-2.045-34.661,0.394-62.601,16.705c49.328,33.235,88.038,107.254,99.412,124.396
					c18.116,27.303,59.469,123.301,61.443,124.288c1.135,0.568,2.305,1.051,3.497,1.461
					C1054.992,793.67,1052.23,784.916,1049.313,776.224z"/>
				<path style="fill:#49C00F;" d="M898.014,654.738c-15.509-7.862-31.15-15.662-46.954-23.125
					c-5.984-2.826-7.439,18.346-13.471,15.632c-4.614-2.076-13.795-28.063-18.439-30.058c-44.693-19.2-91.597-22.488-139.789-27.629
					c-27.161-2.898-54.369-13.709-82.585-9.385c-48.348,7.41-97.335,24.435-143.841,47.696c-9.403,4.703-6.685,19.136-15.859,24.321
					c-5.967,3.372-23.901-2.634-29.753,0.923c-52.914,32.158-100.85,71.536-138.569,112.455
					c20.751,16.793,43.684,31.568,68.159,44.479c97.105,51.225,218.503,73.112,324.393,75.263
					c90.376,1.836,181.378-19.542,261.114-62.233c27.331-14.633,149.182-73.524,112.321-84.866
					C1016.023,732.452,929.757,670.831,898.014,654.738z"/>
				<path style="opacity:0.17;fill:#15A208;" d="M983.245,760.265c-29.893,0.995-74.529,14.974-104.316,13.345
					c-30.443-1.664-60.884-3.377-91.329-5.022c-60.253-3.255-120.526-6.245-180.843-8.023
					c-111.279-3.281-206.223,16.498-337.33,6.292c103.11,80.93,261.119,115.796,391.879,118.453
					c90.375,1.836,181.378-19.542,261.114-62.233c15.137-8.105,82.896-47.041,112.999-66.701
					C1021.301,759.878,998.102,759.771,983.245,760.265z"/>
				<path style="opacity:0.21;fill:#FFC999;" d="M1557.991,876.685c62.054,48.974,121.093,163.173,61.892,238.046
					c-18.343,23.199-52.262,35.564-78.9,22.715c-46.413-22.387-40.353-95.968-80.91-127.756
					c-15.963-12.512-36.764-16.478-55.642-23.893c-23.797-9.347-45.58-25.074-59.228-46.693
					c-13.648-21.619-18.39-49.408-9.648-73.439c28.154-77.386,118.876-50.454,173.435-20.909
					C1526.517,854.249,1542.996,864.852,1557.991,876.685z"/>
				<path style="opacity:0.39;fill:#FF8C00;" d="M920.545,1045.723c-0.615-1.825-2.625-2.993-4.457-3.003
					c-1.818-0.01-3.873,1.11-4.487,2.933c-0.25,0.743-0.531,1.492-0.616,2.275c-0.126,1.161,0.184,2.152,0.52,3.234
					c0.272,0.875,0.544,1.75,0.815,2.625c0.474,1.524,2.222,2.494,3.714,2.502c1.486,0.008,3.267-0.921,3.739-2.444
					c0.27-0.871,0.541-1.742,0.81-2.613c0.337-1.086,0.671-2.075,0.556-3.244C921.063,1047.21,920.794,1046.461,920.545,1045.723z"
					/>
				<path style="opacity:0.39;fill:#FF8C00;" d="M1102.471,1091.284c-5.379,0-4.306,8.304,1.02,8.304
					C1108.87,1099.588,1107.797,1091.284,1102.471,1091.284z"/>
				<path style="opacity:0.39;fill:#FF8C00;" d="M916.842,933.596c-3.427-3.568-7.214-5.264-12.239-4.475
					c-4.363,0.685-7.986,2.949-11.047,6.025c-6.226,6.256-8.227,19.771,1.501,23.924c7.891,3.369,15.907-1.69,19.112-9.023
					c0.896-2.05,1.374-4.343,1.421-6.625c0.631-0.524,1.203-1.13,1.632-1.89C918.488,939.292,918.812,935.647,916.842,933.596z"/>
				<path style="opacity:0.39;fill:#FF8C00;" d="M908.903,1169.025c-2.169,1.361-4.405,2.577-6.233,4.385
					c-1.695,1.677-3.382,3.363-5.073,5.045c-1.852,1.841-1.04,5.313,0.832,6.775c2.269,1.772,4.918,1.015,6.776-0.832
					c1.6-1.591,3.25-3.145,4.806-4.779c1.532-1.609,2.601-3.7,3.792-5.572C915.947,1170.678,912.384,1166.84,908.903,1169.025z"/>
				<path style="opacity:0.39;fill:#FF8C00;" d="M1145.548,1047.669c-6,0-4.803,9.263,1.137,9.263
					C1152.685,1056.932,1151.488,1047.669,1145.548,1047.669z"/>
				<path style="opacity:0.39;fill:#FF8C00;" d="M1059.257,927.687c-6.206,0-4.968,9.582,1.177,9.582
					C1066.64,937.269,1065.402,927.687,1059.257,927.687z"/>
				<path style="opacity:0.39;fill:#FF8C00;" d="M1006.457,1051.663c-7.034,0-5.631,10.86,1.333,10.86
					C1014.825,1062.523,1013.421,1051.663,1006.457,1051.663z"/>
				<path style="opacity:0.39;fill:#FF8C00;" d="M1226.89,1195.13c-7.448,0-5.962,11.499,1.412,11.499
					C1235.75,1206.629,1234.264,1195.13,1226.89,1195.13z"/>
				<path style="opacity:0.39;fill:#FF8C00;" d="M1159.059,1315.271c-2.093-1.763-4.293-3.05-6.533-4.029
					c-0.777-1.042-1.659-2.029-2.749-2.881c-8.553-6.682-20.432-2.1-26.05,5.931c-3.125,4.466-4.173,9.999-3.964,15.547
					c-1.315,1.463-2.699,2.86-3.99,4.365c-4.741,5.528,1.68,12.174,7.655,10.734c4.367,8.873,13.724,15.449,23.848,14.501
					c10.366-0.971,20.055-8.262,21.736-18.97C1170.44,1331.367,1165.982,1321.104,1159.059,1315.271z"/>
				<path style="opacity:0.39;fill:#FF8C00;" d="M1054.405,1430.46c-6.827,0-5.465,10.54,1.294,10.54
					C1062.527,1441,1061.165,1430.46,1054.405,1430.46z"/>
				<path style="opacity:0.39;fill:#FF8C00;" d="M910.678,1277.567c-6.207,0-4.968,9.582,1.177,9.582
					C918.061,1287.149,916.823,1277.567,910.678,1277.567z"/>
				<path style="opacity:0.39;fill:#FF8C00;" d="M748.233,1378.6c-2.996-7.57-10.886-13.32-18.91-13.995
					c-0.988-1.429-2.088-2.807-3.432-4.091c-5.851-5.588-15.519-0.381-16.546,6.736c-1.198,8.297,2.431,21.589,10.545,25.054
					c7.255,3.099,15.964,2.596,22.889-1.043C747.447,1388.808,750.335,1383.912,748.233,1378.6z"/>
				<path style="opacity:0.39;fill:#FF8C00;" d="M718.904,1147.681c-6.827,0-5.465,10.54,1.294,10.54
					C727.025,1158.221,725.663,1147.681,718.904,1147.681z"/>
				<path style="opacity:0.39;fill:#FF8C00;" d="M637.523,1253.922c-5.793,0-4.637,8.943,1.098,8.943
					C644.414,1262.866,643.258,1253.922,637.523,1253.922z"/>
				<path style="opacity:0.39;fill:#FF8C00;" d="M709.75,1505.867c-2.276,0-1.822,3.514,0.432,3.514
					C712.457,1509.38,712.003,1505.867,709.75,1505.867z"/>
				<path style="opacity:0.39;fill:#FF8C00;" d="M985.632,1612.422c-0.042-4.013-0.898-8.114-2.812-12.04
					c-8.797-18.056-32.067-23.381-45.998-7.678c-12.176,13.724-9.574,36.653,6.92,45.471c16.952,9.062,40.295-2.341,42.184-21.78
					C986.051,1615.112,985.936,1613.755,985.632,1612.422z"/>
				<path style="opacity:0.39;fill:#FF8C00;" d="M862.533,1477.111c-8.482,0-6.79,13.095,1.608,13.095
					C872.624,1490.207,870.931,1477.111,862.533,1477.111z"/>
				<path style="opacity:0.39;fill:#FF8C00;" d="M773.026,1545.177c-3.188-0.053-6.376-0.106-9.564-0.159
					c-3.441-0.057-6.498,1.925-6.521,5.707c-0.022,3.706,2.988,5.842,6.451,5.784c3.189-0.053,6.377-0.106,9.566-0.16
					c2.769-0.046,4.923-3.008,4.899-5.556C777.835,1548.258,775.871,1545.225,773.026,1545.177z"/>
				<path style="opacity:0.39;fill:#FF8C00;" d="M1090.766,1703.723c-1.309-0.693-2.618-1.387-3.927-2.08
					c-2.362-1.251-5.681-0.572-7.729,0.949c-2.033,1.51-3.106,3.796-3.119,6.285c-0.013,2.459,0.994,4.719,2.966,6.26
					c2.005,1.566,5.39,2.372,7.769,1.114c1.32-0.698,2.64-1.396,3.96-2.093c2.065-1.092,3.49-2.739,3.504-5.2
					C1094.201,1706.564,1092.825,1704.814,1090.766,1703.723z"/>
				<path style="opacity:0.39;fill:#FF8C00;" d="M1314.13,1639.34c-12.515-11.254-34.615-8.264-41.531,7.792
					c-6.504,15.1,3.749,34.752,20.542,36.407c8.776,0.865,15.84-4.393,19.492-11.53c2.458-0.885,4.716-2.118,6.389-4.469
					C1325.78,1658.043,1322.25,1646.642,1314.13,1639.34z"/>
				<path style="opacity:0.39;fill:#FF8C00;" d="M1285.574,1554.208c-0.288-1.13-0.912-2.271-1.889-2.966
					c-0.792-0.564-1.679-0.94-2.635-1.111c-1.466-0.263-2.774,0.318-3.994,1.028c-0.981,0.571-1.965,1.078-2.8,1.853l-2.473,2.294
					c-1.305,1.21-2.163,2.438-2.478,4.2c-0.344,1.919,0.453,3.838,1.768,5.183c1.221,1.248,2.667,1.871,4.414,1.881
					c2.078,0.011,3.591-0.861,4.983-2.361c0.808-0.871,1.615-1.742,2.423-2.613c1.04-1.122,1.704-2.618,2.477-3.942
					C1285.939,1556.678,1285.836,1555.23,1285.574,1554.208z"/>
				<path style="opacity:0.39;fill:#FF8C00;" d="M1293.775,1428.224c-9.724,0-7.784,15.012,1.843,15.012
					C1305.342,1443.236,1303.401,1428.224,1293.775,1428.224z"/>
				<path style="opacity:0.39;fill:#FF8C00;" d="M1137.178,1512.425c-1.562-0.266-3.124-0.531-4.685-0.797
					c-3.336-0.568-6.322,2.31-6.34,5.548c-0.017,3.208,2.908,6.196,6.272,5.623c1.565-0.266,3.13-0.532,4.695-0.798
					c2.387-0.406,4.186-2.298,4.199-4.762C1141.332,1514.801,1139.577,1512.833,1137.178,1512.425z"/>
				<path style="opacity:0.39;fill:#FF8C00;" d="M1164.74,1402.501c-5.793,0-4.637,8.943,1.098,8.943
					C1171.631,1411.445,1170.475,1402.501,1164.74,1402.501z"/>
				<path style="opacity:0.39;fill:#FF8C00;" d="M1001.546,1299.935c-8.275,0-6.625,12.776,1.569,12.776
					C1011.391,1312.711,1009.74,1299.935,1001.546,1299.935z"/>
				<path style="opacity:0.39;fill:#FF8C00;" d="M848.214,1242.74c-7.862,0-6.293,12.137,1.49,12.137
					C857.566,1254.877,855.997,1242.74,848.214,1242.74z"/>
				<path style="opacity:0.39;fill:#FF8C00;" d="M712.557,1118.661c-1.34,0.648-2.68,1.296-4.02,1.944
					c-3.08,1.489-3.18,5.642-0.056,7.155c1.33,0.644,2.659,1.288,3.99,1.932c3.837,1.858,8.17-1.5,8.192-5.462
					C720.684,1120.323,716.404,1116.801,712.557,1118.661z"/>
				<path style="opacity:0.39;fill:#FF8C00;" d="M651.843,1277.407c-6.414,0-5.134,9.902,1.216,9.902
					C659.472,1287.309,658.193,1277.407,651.843,1277.407z"/>
				<path style="opacity:0.39;fill:#FF8C00;" d="M666.123,1415.602c-7.448,0-5.962,11.499,1.412,11.499
					C674.983,1427.101,673.497,1415.602,666.123,1415.602z"/>
				<path style="opacity:0.39;fill:#FF8C00;" d="M862.357,1283.959c-10.345,0-8.281,15.97,1.961,15.97
					C874.662,1299.929,872.598,1283.959,862.357,1283.959z"/>
				<path style="opacity:0.39;fill:#FF8C00;" d="M915.373,1094.639c-7.241,0-5.797,11.179,1.372,11.179
					C923.986,1105.819,922.542,1094.639,915.373,1094.639z"/>
				<path style="opacity:0.39;fill:#FF8C00;" d="M1116.32,1182.829c-10.965,0-8.777,16.929,2.079,16.929
					C1129.364,1199.758,1127.176,1182.829,1116.32,1182.829z"/>
				<path style="opacity:0.39;fill:#FF8C00;" d="M1111.41,1287.315c-12.207,0-9.771,18.845,2.314,18.845
					C1125.931,1306.159,1123.495,1287.315,1111.41,1287.315z"/>
				<path style="opacity:0.39;fill:#FF8C00;" d="M1025.432,1246.574c-9.103,0-7.287,14.054,1.726,14.054
					C1036.261,1260.628,1034.445,1246.574,1025.432,1246.574z"/>
				<path style="opacity:0.39;fill:#FF8C00;" d="M1011.093,1160.622c-8.69,0-6.956,13.415,1.647,13.415
					C1021.43,1174.037,1019.696,1160.622,1011.093,1160.622z"/>
				<path style="opacity:0.39;fill:#FF8C00;" d="M1082.966,1275.491c-8.896,0-7.121,13.734,1.687,13.734
					C1093.549,1289.225,1091.774,1275.491,1082.966,1275.491z"/>
				<path style="opacity:0.39;fill:#FF8C00;" d="M1087.72,1356.651c-9.31,0-7.453,14.373,1.765,14.373
					C1098.795,1371.024,1096.937,1356.651,1087.72,1356.651z"/>
				<path style="opacity:0.39;fill:#FF8C00;" d="M1087.877,1448.993c-7.655,0-6.127,11.818,1.451,11.818
					C1096.983,1460.811,1095.456,1448.993,1087.877,1448.993z"/>
				<path style="opacity:0.39;fill:#FF8C00;" d="M1241.269,1497.081c-7.448,0-5.962,11.499,1.412,11.499
					C1250.128,1508.58,1248.643,1497.081,1241.269,1497.081z"/>
				<path style="opacity:0.39;fill:#FF8C00;" d="M1549.994,1492.5c-0.692-6.842-11.423-7.046-12.129-0.073
					c-0.106,1.048-0.212,2.097-0.318,3.145c-1.317-3.51-4.434-6.477-9.098-6.477c-11.586,0-9.274,17.887,2.196,17.887
					c3.164,0,5.257-1.356,6.444-3.295c0.486,3.398,3.121,6.146,6.793,6.166c4.255,0.023,7.499-3.644,7.07-7.885
					C1550.633,1498.812,1550.314,1495.656,1549.994,1492.5z"/>
				<path style="opacity:0.39;fill:#FF8C00;" d="M1552.492,1341.154c-10.758,0-8.612,16.609,2.039,16.609
					C1565.289,1357.763,1563.143,1341.154,1552.492,1341.154z"/>
				<path style="opacity:0.39;fill:#FF8C00;" d="M856.322,1431.325c-2.732-5.397-8.175-9.687-14.607-8.655
					c-7.557,1.213-15.114,2.425-22.671,3.638c-10.286,1.651-10.394,14.512-1.891,18.102c-0.889,7.288,0.065,14.348,2.191,21.44
					c3.312,11.048,18.167,13.71,26.611,7.561C858.236,1464.469,863.245,1445,856.322,1431.325z"/>
				<path style="opacity:0.39;fill:#FF8C00;" d="M974.368,1539.899c-0.703-5.185-5.115-9.071-10.318-9.099
					c-5.152-0.028-9.722,3.76-10.429,8.973c-0.213,1.569-0.425,3.138-0.638,4.707c-0.396,2.923,0.466,5.707,2.088,8.105
					c1.969,2.911,5.46,4.375,8.85,4.393c1.434,0.127,2.825-0.104,4.171-0.694c1.424-0.505,2.617-1.319,3.58-2.442
					c1.169-0.96,2.026-2.163,2.569-3.611c0.742-1.807,0.998-3.68,0.766-5.619C974.794,1543.042,974.581,1541.47,974.368,1539.899z"
					/>
				<path style="opacity:0.21;fill:#FFC999;" d="M1076.792,1018.168c-0.329-0.768-0.658-1.536-0.987-2.305
					c-0.504-1.18-1.1-2.225-2.139-3.045c-0.653-0.515-1.522-0.919-2.268-1.345c-0.456-0.123-0.913-0.247-1.369-0.37
					c-0.714-0.122-1.406-0.067-2.077,0.165c-1.13,0.288-2.271,0.912-2.967,1.889c-0.564,0.792-0.94,1.679-1.111,2.636
					c-0.264,1.477,0.324,2.763,1.028,3.994c0.216,0.377,0.414,0.755,0.686,1.092c0.822,1.021,1.894,1.664,3.076,2.17
					c0.736,0.315,1.473,0.63,2.209,0.945c1.646,0.704,3.595,0.261,4.849-0.965
					C1076.972,1021.809,1077.502,1019.828,1076.792,1018.168z"/>
				<path style="opacity:0.21;fill:#FFC999;" d="M1029.074,1002.29c-5.586,0-4.472,8.624,1.059,8.624
					C1035.718,1010.914,1034.604,1002.29,1029.074,1002.29z"/>
				<path style="opacity:0.21;fill:#FFC999;" d="M1115.274,891.42c-3.517,0-2.815,5.43,0.667,5.43
					C1119.458,896.85,1118.756,891.42,1115.274,891.42z"/>
				<path style="opacity:0.21;fill:#FFC999;" d="M956.085,974.07c-7.862,0-6.293,12.138,1.49,12.138
					C965.438,986.208,963.869,974.07,956.085,974.07z"/>
				<path style="opacity:0.21;fill:#FFC999;" d="M931.208,1069.847c-1.088-0.106-2.177-0.212-3.265-0.319
					c-3.921-0.383-7.404,2.464-7.426,6.499c-0.022,3.976,3.395,6.974,7.347,6.587c1.089-0.106,2.179-0.213,3.269-0.319
					c3.117-0.305,5.443-3.159,5.459-6.191C936.608,1073.097,934.342,1070.153,931.208,1069.847z"/>
				<path style="opacity:0.21;fill:#FFC999;" d="M1090.034,1124.763c-0.373-2.159-0.745-4.319-1.118-6.478
					c-0.549-3.181-3.058-5.581-6.349-5.599c-3.255-0.018-5.865,2.324-6.418,5.522c-0.372,2.155-0.745,4.31-1.117,6.465
					c-0.774,4.479,3.111,8.49,7.45,8.513C1086.783,1133.209,1090.814,1129.279,1090.034,1124.763z"/>
				<path style="opacity:0.21;fill:#FFC999;" d="M1055.242,986.663c-8.689,0-6.956,13.415,1.647,13.415
					C1065.579,1000.078,1063.845,986.663,1055.242,986.663z"/>
				<path style="opacity:0.21;fill:#FFC999;" d="M982.744,1058.364c-5.793,0-4.637,8.943,1.098,8.943
					C989.635,1067.307,988.479,1058.364,982.744,1058.364z"/>
				<path style="opacity:0.21;fill:#FFC999;" d="M1018.993,1120.095c-7.241,0-5.796,11.179,1.373,11.179
					C1027.607,1131.274,1026.162,1120.095,1018.993,1120.095z"/>
				<path style="opacity:0.21;fill:#FFC999;" d="M1099.031,1070.142c-0.349-0.964-0.698-1.927-1.047-2.891
					c-0.336-0.927-1.097-1.888-1.868-2.491c-1.044-0.816-2.32-1.206-3.63-1.213c-2.281-0.013-4.722,1.375-5.534,3.618
					c-0.347,0.958-0.694,1.917-1.04,2.875c-0.852,2.354-0.674,4.886,0.852,6.941c1.355,1.825,3.409,2.789,5.643,2.801
					c2.208,0.012,4.238-0.893,5.621-2.663C1099.605,1075.103,1099.888,1072.509,1099.031,1070.142z"/>
				<path style="opacity:0.21;fill:#FFC999;" d="M1038.84,1030.783c-7.241,0-5.796,11.179,1.373,11.179
					C1047.454,1041.962,1046.009,1030.783,1038.84,1030.783z"/>
				<path style="opacity:0.21;fill:#FFC999;" d="M1019.071,1094.271c-6.413,0-5.134,9.901,1.216,9.901
					C1026.701,1104.172,1025.421,1094.271,1019.071,1094.271z"/>
				<path style="opacity:0.21;fill:#FFC999;" d="M1062.25,1099.016c-4.551,0-3.643,7.027,0.863,7.027
					C1067.664,1106.043,1066.756,1099.016,1062.25,1099.016z"/>
				<path style="opacity:0.21;fill:#FFC999;" d="M1095.093,1050.79c-7.034,0-5.631,10.86,1.333,10.86
					C1103.461,1061.65,1102.057,1050.79,1095.093,1050.79z"/>
				<path style="opacity:0.21;fill:#FFC999;" d="M1068.65,968.253c-6.828,0-5.465,10.541,1.294,10.541
					C1076.772,978.794,1075.41,968.253,1068.65,968.253z"/>
				<path style="opacity:0.21;fill:#FFC999;" d="M1029.211,933.943c-4.138,0-3.312,6.388,0.784,6.388
					C1034.133,940.331,1033.307,933.943,1029.211,933.943z"/>
				<path style="opacity:0.21;fill:#FFC999;" d="M1147.953,999.998c-3.832-3.304-7.663-6.608-11.495-9.913
					c-1.099-1.499-2.753-2.624-5.037-2.624c-4.941,0-6.011,4.896-4.144,8.387c0.045,0.083,0.112,0.155,0.163,0.236
					c0.762,1.295,1.936,2.316,3.503,2.81c3.953,2.565,7.906,5.13,11.859,7.695
					C1147.277,1009.495,1152.083,1003.559,1147.953,999.998z"/>
				<path style="opacity:0.21;fill:#FFC999;" d="M1160.083,1082.441c-1.055-1.561-2.928-2.346-4.746-2.355
					c-1.631-0.009-2.99,0.542-4.156,1.682c-0.627,0.514-1.086,1.16-1.378,1.936c-0.398,0.969-0.535,1.973-0.411,3.013
					c0.267,1.07,0.533,2.14,0.799,3.21c0.328,1.321,0.763,2.591,1.94,3.43c0.948,0.675,1.97,1.043,3.139,1.05
					c1.075,0.006,2.243-0.273,3.101-0.972c0.329-0.322,0.658-0.644,0.988-0.965c0.57-0.734,0.918-1.561,1.046-2.481
					c0.266-1.066,0.532-2.133,0.797-3.2C1161.568,1085.316,1160.896,1083.644,1160.083,1082.441z"/>
				<path style="opacity:0.21;fill:#FFC999;" d="M1144.789,1137.433c-6.206,0-4.968,9.582,1.177,9.582
					C1152.172,1147.015,1150.934,1137.433,1144.789,1137.433z"/>
				<path style="opacity:0.21;fill:#FFC999;" d="M1101.631,1175.849l-6.577,0.319c-2.879,0.14-5.024,3.024-5.039,5.714
					c-0.015,2.674,2.074,5.635,4.97,5.776c2.191,0.106,4.382,0.212,6.573,0.319c3.635,0.176,6.862-2.131,6.883-6.023
					C1108.46,1178.132,1105.292,1175.671,1101.631,1175.849z"/>
				<path style="opacity:0.21;fill:#FFC999;" d="M985.895,1166.245c-7.448,0-5.962,11.499,1.412,11.499
					C994.755,1177.744,993.269,1166.245,985.895,1166.245z"/>
				<path style="opacity:0.21;fill:#FFC999;" d="M942.932,1140.101c-7.034,0-5.631,10.86,1.333,10.86
					C951.3,1150.962,949.896,1140.101,942.932,1140.101z"/>
				<path style="opacity:0.21;fill:#FFC999;" d="M906.448,1215.384c-8.068,0-6.459,12.456,1.53,12.456
					C916.046,1227.84,914.436,1215.384,906.448,1215.384z"/>
				<path style="opacity:0.21;fill:#FFC999;" d="M1005.703,1238.698c-7.862,0-6.293,12.138,1.49,12.138
					C1015.055,1250.836,1013.486,1238.698,1005.703,1238.698z"/>
				<path style="opacity:0.21;fill:#FFC999;" d="M1065.401,1239.976c-6.206,0-4.968,9.582,1.177,9.582
					C1072.784,1249.558,1071.546,1239.976,1065.401,1239.976z"/>
				<path style="opacity:0.21;fill:#FFC999;" d="M1164.676,1230.372c-5.793,0-4.637,8.943,1.098,8.943
					C1171.567,1239.315,1170.411,1230.372,1164.676,1230.372z"/>
				<path style="opacity:0.21;fill:#FFC999;" d="M1038.919,1362.206c-6.414,0-5.134,9.902,1.216,9.902
					C1046.548,1372.108,1045.268,1362.206,1038.919,1362.206z"/>
				<path style="opacity:0.21;fill:#FFC999;" d="M880.024,1252.089c-7.655,0-6.128,11.818,1.451,11.818
					C889.13,1263.907,887.603,1252.089,880.024,1252.089z"/>
				<path style="opacity:0.21;fill:#FFC999;" d="M899.832,1096.301c-8.069,0-6.459,12.457,1.529,12.457
					C909.43,1108.758,907.82,1096.301,899.832,1096.301z"/>
				<path style="opacity:0.21;fill:#FFC999;" d="M819.941,1134.012c-0.958-0.346-1.917-0.693-2.875-1.04
					c-2.14-0.774-4.442-0.613-6.31,0.775c-1.659,1.232-2.535,3.099-2.546,5.13c-0.011,2.007,0.812,3.853,2.421,5.11
					c1.831,1.431,4.19,1.689,6.342,0.91c0.964-0.349,1.928-0.698,2.892-1.047c2.002-0.725,3.292-2.846,3.304-4.903
					C823.178,1136.913,821.941,1134.736,819.941,1134.012z"/>
				<path style="opacity:0.21;fill:#FFC999;" d="M879.946,1000.054c-8.482,0-6.79,13.095,1.608,13.095
					C890.036,1013.15,888.344,1000.054,879.946,1000.054z"/>
				<path style="opacity:0.21;fill:#FFC999;" d="M929.681,958.01c-7.241,0-5.796,11.179,1.373,11.179
					C938.295,969.19,936.85,958.01,929.681,958.01z"/>
				<path style="opacity:0.21;fill:#FFFFFF;" d="M1038.127,1084.875c-10.345,0-8.281,15.97,1.961,15.97
					C1050.432,1100.845,1048.368,1084.875,1038.127,1084.875z"/>
				<path style="opacity:0.21;fill:#FFFFFF;" d="M1099.721,1124.714c-4.344,0-3.478,6.707,0.824,6.707
					C1104.889,1131.421,1104.022,1124.714,1099.721,1124.714z"/>
				<path style="opacity:0.21;fill:#FFFFFF;" d="M1043.135,1153.15c-7.034,0-5.631,10.859,1.334,10.859
					C1051.503,1164.01,1050.099,1153.15,1043.135,1153.15z"/>
				<path style="opacity:0.21;fill:#FFFFFF;" d="M982.13,1104.02c-6.827,0-5.465,10.54,1.294,10.54
					C990.251,1114.561,988.889,1104.02,982.13,1104.02z"/>
				<path style="opacity:0.21;fill:#FFFFFF;" d="M928.087,1145.789c-7.448,0-5.962,11.499,1.412,11.499
					C936.947,1157.288,935.461,1145.789,928.087,1145.789z"/>
				<path style="opacity:0.21;fill:#FFFFFF;" d="M942.131,1197.106c-7.862,0-6.293,12.138,1.49,12.138
					C951.483,1209.244,949.914,1197.106,942.131,1197.106z"/>
				<path style="opacity:0.21;fill:#FFFFFF;" d="M972.475,1132.911c-1.267-2.19-2.535-4.38-3.802-6.57
					c-1.658-2.865-6.281-0.172-5.018,2.797c0.906,2.13,1.813,4.259,2.719,6.389c-0.716,2.913,1.251,6.879,5.275,6.879
					C977.297,1142.406,976.968,1134.744,972.475,1132.911z"/>
				<path style="opacity:0.21;fill:#FFFFFF;" d="M949.368,1053.182c-5.793,0-4.637,8.943,1.098,8.943
					C956.259,1062.125,955.103,1053.182,949.368,1053.182z"/>
				<path style="opacity:0.21;fill:#FFFFFF;" d="M911.638,1051.745c-7.655,0-6.128,11.818,1.451,11.818
					C920.743,1063.563,919.216,1051.745,911.638,1051.745z"/>
				<path style="opacity:0.21;fill:#FFFFFF;" d="M874.182,1064.279c-6.62,0-5.299,10.221,1.255,10.221
					C882.057,1074.5,880.736,1064.279,874.182,1064.279z"/>
				<path style="opacity:0.21;fill:#FFFFFF;" d="M843.669,1040.808c-6.62,0-5.299,10.221,1.255,10.221
					C851.544,1051.028,850.224,1040.808,843.669,1040.808z"/>
				<path style="opacity:0.21;fill:#FFFFFF;" d="M845.733,1073.992l-0.832-1.495c-0.412-0.422-0.825-0.843-1.237-1.265l-1.527-0.894
					c-0.802-0.368-1.634-0.518-2.495-0.451c-0.571-0.074-1.125-0.006-1.661,0.204c-0.575,0.072-1.097,0.281-1.565,0.625
					c-0.552,0.222-1.011,0.567-1.38,1.035c-0.484,0.364-0.844,0.825-1.08,1.382c-0.365,0.471-0.588,1-0.67,1.589
					c-0.22,0.537-0.296,1.093-0.228,1.669c-0.074,0.571-0.006,1.125,0.204,1.661c0.143,0.852,0.49,1.622,1.041,2.312
					c0.345,0.527,0.689,1.053,1.034,1.58c0.916,1.399,2.63,2.092,4.233,2.101c1.551,0.008,3.321-0.626,4.216-1.997
					c0.338-0.518,0.676-1.036,1.015-1.555c0.634-0.971,1.183-2.01,1.34-3.178c0.003-0.562,0.006-1.125,0.009-1.687
					C846.011,1075.082,845.872,1074.537,845.733,1073.992z"/>
				<path style="opacity:0.21;fill:#FFFFFF;" d="M829.547,1136.72c-7.034,0-5.631,10.86,1.333,10.86
					C837.915,1147.58,836.511,1136.72,829.547,1136.72z"/>
				<path style="opacity:0.21;fill:#FFFFFF;" d="M855.326,1138.748c-7.448,0-5.962,11.499,1.412,11.499
					C864.186,1150.246,862.7,1138.748,855.326,1138.748z"/>
				<path style="opacity:0.21;fill:#FFFFFF;" d="M874.123,1103.7c-7.241,0-5.797,11.179,1.373,11.179
					C882.737,1114.88,881.292,1103.7,874.123,1103.7z"/>
				<path style="opacity:0.21;fill:#FFFFFF;" d="M932.86,961.006c-6.621,0-5.299,10.221,1.255,10.221
					C940.735,971.227,939.414,961.006,932.86,961.006z"/>
				<path style="opacity:0.21;fill:#FFFFFF;" d="M975.186,910.008c-5.793,0-4.637,8.943,1.098,8.943
					C982.077,918.951,980.921,910.008,975.186,910.008z"/>
				<path style="opacity:0.21;fill:#FFFFFF;" d="M1030.65,944.503c-0.238-0.27-0.476-0.54-0.714-0.81l-1.146-1.173
					c-0.644-0.543-1.371-0.888-2.18-1.035c-0.497-0.204-1.013-0.275-1.547-0.211c-0.529-0.069-1.043-0.006-1.54,0.189
					c-0.789,0.132-1.504,0.454-2.142,0.965l-1.173,1.146c-0.276,0.472-0.553,0.944-0.829,1.415c-0.341,0.743-0.48,1.514-0.418,2.312
					c-0.069,0.53-0.005,1.042,0.189,1.539c0.067,0.533,0.261,1.017,0.579,1.45c0.339,0.75,0.849,1.372,1.532,1.865
					c0.471,0.276,0.943,0.552,1.415,0.828c0.958,0.399,2.068,0.504,3.094,0.422c1.608-0.128,3.047-1.137,4.073-2.304
					c0.245-0.279,0.49-0.558,0.735-0.836c0.215-0.367,0.43-0.734,0.644-1.101c0.265-0.578,0.373-1.177,0.325-1.798
					C1031.552,946.405,1031.309,945.251,1030.65,944.503z"/>
				<path style="opacity:0.21;fill:#FFFFFF;" d="M1060.424,954.784c-1.531-3.925-3.061-7.85-4.592-11.776
					c-2.413-6.188-11.978-2.369-9.57,3.807c1.53,3.925,3.061,7.85,4.591,11.776C1053.267,964.78,1062.832,960.96,1060.424,954.784z"
					/>
				<path style="opacity:0.21;fill:#FFFFFF;" d="M1041.278,908.348c-1.862,0-1.49,2.875,0.353,2.875
					C1043.493,911.222,1043.121,908.348,1041.278,908.348z"/>
				<path style="opacity:0.21;fill:#FFFFFF;" d="M1110.484,932.374c-1.335-1.365-3.239-1.731-5.035-1.107
					c-0.961,0.334-1.922,0.667-2.882,1.001c-2.04,0.709-3.518,2.77-3.8,4.863c-0.137,1.059-0.011,2.085,0.378,3.079
					c0.278,0.784,0.726,1.441,1.345,1.971c0.528,0.644,1.191,1.115,1.988,1.415c0.995,0.409,2.026,0.549,3.094,0.422
					c2.065-0.254,4.197-1.694,4.901-3.72c0.337-0.968,0.673-1.936,1.01-2.903C1112.103,935.613,1111.834,933.755,1110.484,932.374z"
					/>
				<path style="opacity:0.21;fill:#FFFFFF;" d="M1129.959,958.179c-7.241,0-5.796,11.179,1.373,11.179
					C1138.573,969.358,1137.128,958.179,1129.959,958.179z"/>
				<path style="opacity:0.21;fill:#FFFFFF;" d="M1165.166,974.609c-7.241,0-5.796,11.179,1.373,11.179
					C1173.779,985.788,1172.335,974.609,1165.166,974.609z"/>
				<path style="opacity:0.21;fill:#FFFFFF;" d="M1191.023,1007.788c-6.827,0-5.465,10.54,1.294,10.54
					C1199.145,1018.328,1197.783,1007.788,1191.023,1007.788z"/>
				<path style="opacity:0.21;fill:#FFFFFF;" d="M1190.344,1072.12c-0.78-0.606-1.659-0.976-2.636-1.112
					c-0.947-0.123-1.866-0.01-2.755,0.339c-0.644,0.349-1.287,0.698-1.931,1.047c-0.68,0.369-1.33,0.738-1.817,1.363
					c-0.595,0.762-0.88,1.693-0.885,2.648c-0.004,0.775,0.168,1.447,0.546,2.124c0.507,0.911,1.174,1.414,2.094,1.914
					c0.638,0.347,1.276,0.693,1.915,1.04c0.89,0.366,1.813,0.492,2.768,0.378c0.954-0.121,1.819-0.466,2.595-1.036
					c1.41-1.047,2.155-2.634,2.164-4.361C1192.411,1074.757,1191.712,1073.189,1190.344,1072.12z"/>
				<path style="opacity:0.21;fill:#FFFFFF;" d="M1155.601,1118.693c-9.103,0-7.287,14.054,1.725,14.054
					C1166.429,1132.747,1164.613,1118.693,1155.601,1118.693z"/>
				<path style="opacity:0.21;fill:#FFFFFF;" d="M1188.421,1184.093c-9.517,0-7.618,14.693,1.804,14.693
					C1199.742,1198.786,1197.843,1184.093,1188.421,1184.093z"/>
				<path style="opacity:0.21;fill:#FFFFFF;" d="M1059.565,1178.968c-7.034,0-5.631,10.86,1.333,10.86
					C1067.933,1189.828,1066.529,1178.968,1059.565,1178.968z"/>
				<path style="opacity:0.21;fill:#FFFFFF;" d="M1033.844,1207.932c-6,0-4.803,9.263,1.138,9.263
					C1040.982,1217.195,1039.785,1207.932,1033.844,1207.932z"/>
				<path style="opacity:0.21;fill:#FFFFFF;" d="M951.715,1250.34c-5.793,0-4.637,8.943,1.098,8.943
					C958.606,1259.283,957.45,1250.34,951.715,1250.34z"/>
				<path style="opacity:0.21;fill:#FFFFFF;" d="M971.132,1323.322c-0.346-0.861-0.885-1.579-1.615-2.154
					c-0.452-0.423-0.904-0.845-1.356-1.268c-0.521-0.305-1.043-0.61-1.564-0.916c-0.564-0.153-1.128-0.305-1.692-0.457
					c-0.576-0.003-1.152-0.006-1.728-0.009c-0.558,0.142-1.116,0.285-1.675,0.427c-0.51,0.284-1.02,0.569-1.531,0.853l-1.296,1.267
					c-0.305,0.522-0.611,1.043-0.916,1.565c-0.377,0.822-0.53,1.674-0.462,2.556c-0.076,0.585-0.006,1.152,0.209,1.702
					c0.074,0.59,0.287,1.124,0.64,1.603c0.227,0.565,0.58,1.036,1.06,1.413c0.373,0.495,0.845,0.864,1.416,1.106
					c0.482,0.374,1.024,0.603,1.628,0.686c0.55,0.226,1.12,0.303,1.71,0.233c0.585,0.076,1.152,0.006,1.702-0.209
					c0.872-0.147,1.662-0.502,2.368-1.066l1.388-1.292c0.755-0.568,1.317-1.287,1.685-2.157c0.287-0.626,0.404-1.276,0.352-1.948
					C971.513,1324.591,971.405,1323.946,971.132,1323.322z"/>
				<path style="opacity:0.21;fill:#FFFFFF;" d="M998.01,1341.302c-12.62,0-10.102,19.484,2.392,19.484
					C1013.023,1360.786,1010.505,1341.302,998.01,1341.302z"/>
				<path style="opacity:0.21;fill:#FFFFFF;" d="M1003.608,973.5c-0.956-0.978-2.663-1.241-3.781-0.321
					c-0.847,0.696-1.692,1.392-2.539,2.089c-1.493,1.228-1.759,3.384-0.365,4.812c1.364,1.395,3.581,1.259,4.819-0.246
					c0.698-0.849,1.396-1.697,2.094-2.545C1004.752,976.174,1004.582,974.497,1003.608,973.5z"/>
				<path style="opacity:0.21;fill:#FFFFFF;" d="M1019.723,1026.885c-6.414,0-5.134,9.901,1.216,9.901
					C1027.352,1036.786,1026.072,1026.885,1019.723,1026.885z"/>
				<path style="opacity:0.21;fill:#FFFFFF;" d="M1075.236,973.667c-1.423-1.111-3.549-1.509-5.232-0.751
					c-0.663,0.299-1.327,0.598-1.99,0.897c-1.617,0.729-2.693,2.211-2.703,4.012c-0.01,1.764,1.026,3.31,2.64,4.038
					c0.659,0.297,1.317,0.594,1.976,0.892c1.673,0.755,3.754,0.44,5.206-0.639c1.369-1.016,2.092-2.556,2.101-4.232
					C1077.243,976.227,1076.564,974.705,1075.236,973.667z"/>
				<path style="opacity:0.21;fill:#FFFFFF;" d="M996.036,982.88c-8.689,0-6.956,13.415,1.647,13.415
					C1006.372,996.294,1004.638,982.88,996.036,982.88z"/>
				<path style="opacity:0.21;fill:#FFFFFF;" d="M980.335,1026.924c-0.178-0.445-0.456-0.815-0.833-1.111
					c-0.459-0.559-1.034-0.969-1.727-1.229c-0.638-0.347-1.276-0.694-1.914-1.04c-1.048-0.43-2.133-0.578-3.257-0.444
					c-1.123,0.142-2.141,0.548-3.053,1.219c-0.944,0.71-1.646,1.609-2.107,2.696c-0.359,0.783-0.505,1.594-0.44,2.434
					c-0.074,0.832,0.06,1.638,0.402,2.418c0.433,1.077,1.106,1.974,2.019,2.692c0.918,0.712,1.951,1.148,3.101,1.308
					c1.115,0.145,2.195,0.012,3.241-0.398c0.644-0.349,1.287-0.698,1.931-1.047c0.831-0.451,1.625-0.903,2.221-1.666
					c0.728-0.932,1.076-2.069,1.082-3.237C981.007,1028.573,980.796,1027.752,980.335,1026.924z"/>
				<path style="opacity:0.21;fill:#FFFFFF;" d="M1021.854,1057.987c-8.689,0-6.956,13.415,1.647,13.415
					C1032.191,1071.402,1030.457,1057.987,1021.854,1057.987z"/>
				<path style="opacity:0.21;fill:#FFFFFF;" d="M1118.89,1092.7c-0.207,0-0.166,0.32,0.039,0.32
					C1119.136,1093.02,1119.095,1092.7,1118.89,1092.7z"/>
				<path style="opacity:0.21;fill:#FFFFFF;" d="M1148.638,1039.53c-8.276,0-6.624,12.776,1.569,12.776
					C1158.482,1052.306,1156.831,1039.53,1148.638,1039.53z"/>
			</g>
			<path style="fill:#15A208;" d="M654.954,721.114c-5.793,0-4.637,8.943,1.098,8.943
				C661.845,730.057,660.689,721.114,654.954,721.114z"/>
			<path style="fill:#15A208;" d="M685.848,811.425c-4.344,0-3.478,6.708,0.824,6.708
				C691.016,818.133,690.149,811.425,685.848,811.425z"/>
			<path style="fill:#15A208;" d="M559.864,800.081c-3.103,0-2.484,4.791,0.588,4.791
				C563.555,804.872,562.936,800.081,559.864,800.081z"/>
			<path style="fill:#15A208;" d="M777.882,778.752c-2.602,0-3.999,1.534-4.377,3.429c-0.554-0.18-1.115-0.353-1.774-0.353
				c-3.194,0-4.533,2.316-4.429,4.771c-1.092,0.873-2.184,1.746-3.276,2.618c-1.921,1.535-3.067,3.53-3.495,5.923
				c-0.199,1.532-0.016,3.018,0.547,4.456c0.402,1.135,1.051,2.086,1.946,2.854c0.765,0.932,1.724,1.615,2.878,2.048
				c1.076,0.493,2.191,0.695,3.347,0.605c1.143,0.101,2.251-0.083,3.325-0.553c1.481-0.595,2.715-1.52,3.702-2.776
				c0.899-1.124,1.797-2.248,2.695-3.373c1.273-1.593,2.051-4.131,1.711-6.171c-0.177-0.691-0.353-1.382-0.529-2.073
				c-0.132-0.372-0.45-0.604-0.637-0.934C785.899,788.828,784.51,778.752,777.882,778.752z"/>
			<path style="fill:#15A208;" d="M612.071,814.82c-3.931,0-3.146,6.069,0.745,6.069C616.748,820.889,615.963,814.82,612.071,814.82
				z"/>
			<path style="fill:#15A208;" d="M572.265,770.123c-2.069,0-1.656,3.194,0.392,3.194
				C574.725,773.317,574.313,770.123,572.265,770.123z"/>
			<path style="fill:#15A208;" d="M928.746,761.576c-5.172,0-4.14,7.985,0.981,7.985
				C934.898,769.561,933.866,761.576,928.746,761.576z"/>
			<path style="fill:#15A208;" d="M845.586,708.332c-6.413,0-5.134,9.901,1.216,9.901
				C853.215,718.233,851.935,708.332,845.586,708.332z"/>
			<path style="fill:#15A208;" d="M812.596,737.734c-0.907-0.929-1.983-1.392-3.282-1.399c-1.346-0.008-2.942,0.545-3.705,1.755
				c-0.772,1.224-1.543,2.447-2.315,3.67c-0.515,0.817-0.924,1.727-0.757,2.729c0.136,0.818,0.465,1.514,1.048,2.11
				c1.341,1.372,3.252,1.406,4.832,0.411c1.217-0.767,2.434-1.534,3.651-2.3C814.467,743.199,814.408,739.588,812.596,737.734z"/>
			<path style="fill:#15A208;" d="M642.965,782.106c-2.483,0-1.987,3.833,0.471,3.833
				C645.918,785.939,645.423,782.106,642.965,782.106z"/>
			<path style="fill:#15A208;" d="M547.62,717.518c-2.483,0-1.987,3.833,0.471,3.833C550.573,721.35,550.078,717.518,547.62,717.518
				z"/>
			<path style="fill:#15A208;" d="M495.118,721.912c-4.758,0-3.809,7.346,0.902,7.346
				C500.779,729.258,499.829,721.912,495.118,721.912z"/>
			<path style="fill:#15A208;" d="M452.079,743.601c-4.551,0-3.643,7.027,0.863,7.027
				C457.493,750.628,456.585,743.601,452.079,743.601z"/>
			<path style="fill:#15A208;" d="M347.585,753.467c-3.724,0-2.981,5.749,0.706,5.749
				C352.015,759.216,351.272,753.467,347.585,753.467z"/>
			<path style="fill:#15A208;" d="M427.756,790.276c-1.648-2.958-5.167-4.194-8.352-3.017c-2.142,0.792-4.284,1.583-6.425,2.375
				c-4.272,1.579-5.891,6.846-3.755,10.68c2.268,4.072,7.28,4.943,11.059,2.422c1.883-1.256,3.766-2.512,5.648-3.768
				C428.734,797.097,429.31,793.067,427.756,790.276z"/>
			<path style="fill:#15A208;" d="M478.035,820.109c-1.987-2.033-5.22-2.69-7.869-1.638c-1.439,0.572-2.486,1.664-3.614,2.666
				c-1.086,0.817-1.893,1.85-2.423,3.101c-0.167,0.618-0.334,1.235-0.501,1.853c-0.166,1.281-0.014,2.524,0.458,3.727
				c0.336,0.949,0.879,1.745,1.628,2.386c0.639,0.779,1.442,1.35,2.407,1.713c0.9,0.412,1.833,0.581,2.799,0.506
				c2.415,0.013,4.286-0.992,5.877-2.784c0.979-1.103,2.224-2.251,2.736-3.654C480.521,825.278,480.063,822.183,478.035,820.109z"/>
			<path style="fill:#15A208;" d="M548.432,845.048c-0.664-0.68-1.401-1.118-2.319-1.366c-0.984-0.266-2.3-0.352-3.237,0.145
				c-1.184,0.626-2.368,1.253-3.552,1.879c-1.077,0.432-1.974,1.105-2.692,2.019c-0.712,0.918-1.149,1.951-1.308,3.101
				c-0.27,2.01,0.42,3.89,1.813,5.316c1.415,1.448,3.307,2.185,5.35,1.934c1.123-0.142,2.14-0.548,3.052-1.219
				c0.944-0.71,1.646-1.609,2.107-2.697l1.887-3.57c0.116-0.43,0.232-0.859,0.348-1.289c0.003-0.439,0.005-0.878,0.007-1.317
				C549.751,846.853,549.219,845.852,548.432,845.048z"/>
			<path style="fill:#15A208;" d="M718.994,839.668c-11.586,0-9.274,17.887,2.196,17.887
				C732.776,857.555,730.464,839.668,718.994,839.668z"/>
			<path style="fill:#15A208;" d="M728.615,731.422c-0.399-0.866-0.798-1.733-1.196-2.6c-0.571-1.241-1.386-2.448-2.473-3.298
				l-1.825-1.069c-0.959-0.439-1.953-0.619-2.982-0.538c-0.683-0.089-1.344-0.008-1.985,0.243c-0.688,0.087-1.311,0.336-1.87,0.747
				c-0.659,0.265-1.209,0.677-1.649,1.237c-0.83,0.681-1.439,1.536-1.825,2.564c-0.396,0.86-0.792,1.72-1.189,2.581
				c-1.323,2.872-0.748,6.498,1.104,8.991c1.012,1.345,2.293,2.346,3.842,3.002c1.115,0.511,2.272,0.72,3.469,0.626
				c1.185,0.105,2.333-0.086,3.446-0.573c1.534-0.616,2.813-1.576,3.836-2.877C729.227,738.017,729.945,734.312,728.615,731.422z"/>
			<path style="fill:#15A208;" d="M574.87,732.458c-7.034,0-5.631,10.86,1.333,10.86
				C583.237,743.317,581.834,732.458,574.87,732.458z"/>
			<path style="fill:#15A208;" d="M645.786,804.635c-5.211,0.333-10.422,0.666-15.633,0.999c-8.495,0.543-5.774,14.769,3.006,11.751
				c4.868-1.673,9.737-3.346,14.605-5.019C652.264,810.819,650.169,804.355,645.786,804.635z"/>
			<path style="fill:#15A208;" d="M954.918,755.832c-0.374-1.933-1.658-3.26-3.592-3.637c-1.2-0.233-2.349-0.352-3.562-0.042
				c-1.474,0.376-2.618,1.335-3.814,2.225c-3.037,2.26-3.322,6.711-0.711,9.383c1.221,1.249,2.667,1.872,4.414,1.881
				c1.924,0.01,3.803-0.776,4.983-2.361c0.9-1.21,1.898-2.375,2.298-3.857C955.264,758.199,955.152,757.046,954.918,755.832z"/>
			<path style="fill:#15A208;" d="M842.647,810.946c-3.424,0.148-7.101,1.851-10.362,2.871c-5.312,1.661-2.083,9.951,3.212,8.075
				c3.277-1.161,7.04-2.035,9.923-4.011C848.83,815.543,846.244,810.791,842.647,810.946z"/>
			<path style="fill:#15A208;" d="M433.546,764.492c-5.379,0-4.306,8.305,1.02,8.305
				C439.945,772.796,438.872,764.492,433.546,764.492z"/>
			<path style="fill:#15A208;" d="M510.752,687.08c-2.069,0-1.656,3.194,0.392,3.194C513.212,690.274,512.8,687.08,510.752,687.08z"
				/>
			<path style="fill:#15A208;" d="M384.395,697.307c-4.758,0-3.809,7.347,0.902,7.347
				C390.055,704.653,389.106,697.307,384.395,697.307z"/>
			<path style="fill:#15A208;" d="M491.886,659.122c-6.414,0-5.134,9.901,1.216,9.901
				C499.515,669.023,498.235,659.122,491.886,659.122z"/>
			<path style="fill:#15A208;" d="M587.29,628.844c-5.793,0-4.637,8.943,1.098,8.943
				C594.181,637.787,593.025,628.844,587.29,628.844z"/>
			<path style="fill:#15A208;" d="M752.18,638.3c-0.663-0.466-1.457-0.704-2.359-0.698c-0.453-0.054-0.906-0.108-1.359-0.163
				c-7.407-0.888-7.536,11.11-0.062,10.214c0.491-0.059,0.981-0.118,1.472-0.176c0.836-0.017,1.578-0.251,2.212-0.674
				c1.621-0.867,2.297-2.466,2.248-4.151C754.478,640.907,753.854,639.208,752.18,638.3z"/>
			<path style="fill:#15A208;" d="M922.359,713.525c-7.655,0-6.127,11.818,1.451,11.818
				C931.465,725.343,929.938,713.525,922.359,713.525z"/>
			<path style="fill:#15A208;" d="M974.802,601.003c-6,0-4.803,9.263,1.137,9.263C981.939,610.266,980.742,601.003,974.802,601.003z
				"/>
			<path style="fill:#15A208;" d="M956.466,543.524c-4.759,0-3.809,7.346,0.902,7.346
				C962.126,550.87,961.177,543.524,956.466,543.524z"/>
			<path style="fill:#15A208;" d="M1002.699,645.819c-3.724,0-2.981,5.749,0.706,5.749
				C1007.129,651.568,1006.386,645.819,1002.699,645.819z"/>
			<path style="fill:#15A208;" d="M1033.181,708.172c-6.621,0-5.3,10.221,1.255,10.221
				C1041.056,718.393,1039.735,708.172,1033.181,708.172z"/>
			<path style="fill:#15A208;" d="M1067.209,774.358c-4.552,0-3.643,7.027,0.863,7.027
				C1072.624,781.385,1071.715,774.358,1067.209,774.358z"/>
			<path style="fill:#15A208;" d="M940.97,742.483c-6,0-4.803,9.263,1.137,9.263C948.107,751.746,946.91,742.483,940.97,742.483z"/>
			<path style="fill:#15A208;" d="M833.597,797.005c-3.103,0-2.484,4.791,0.588,4.791
				C837.288,801.796,836.669,797.005,833.597,797.005z"/>
			<path style="fill:#15A208;" d="M766.291,828.908c-0.299-0.906-0.598-1.813-0.897-2.719c-0.639-1.935-3.819-2.015-4.472-0.035
				c-0.297,0.901-0.595,1.803-0.892,2.705c-0.377,1.144-0.337,2.311,0.407,3.313c0.647,0.871,1.627,1.331,2.693,1.337
				C765.584,833.522,767.029,831.145,766.291,828.908z"/>
			<path style="fill:#15A208;" d="M676.405,797.366c-6.62,0-5.3,10.221,1.255,10.221
				C684.281,807.587,682.96,797.366,676.405,797.366z"/>
		</g>
		<path style="fill:#FDE41B;" d="M1748.643,769.282c53.617-13.73,95.837-55.951,109.567-109.567
			c13.799,53.617,56.02,95.837,109.705,109.567c-53.685,13.799-95.906,56.02-109.705,109.705
			C1844.48,825.302,1802.26,783.081,1748.643,769.282z"/>
		<path style="fill:#FDE41B;" d="M252.948,1424.359c53.617-13.73,95.837-55.951,109.567-109.567
			c13.799,53.617,56.02,95.837,109.705,109.567c-53.685,13.799-95.906,56.02-109.705,109.705
			C348.785,1480.379,306.565,1438.158,252.948,1424.359z"/>
		<path style="fill:#FDE41B;" d="M1825.543,1102.594c36.483-9.343,65.212-38.071,74.554-74.555
			c9.39,36.483,38.118,65.212,74.648,74.555c-36.53,9.389-65.259,38.118-74.648,74.648
			C1890.755,1140.713,1862.026,1111.984,1825.543,1102.594z"/>
		<path style="fill:#FDE41B;" d="M2013.161,910.784c20.965-5.369,37.474-21.878,42.843-42.843
			c5.396,20.965,21.905,37.474,42.897,42.843c-20.992,5.396-37.501,21.905-42.897,42.896
			C2050.635,932.689,2034.126,916.18,2013.161,910.784z"/>
		<path style="fill:#FDE41B;" d="M180.461,1213.71c20.965-5.369,37.474-21.878,42.843-42.843
			c5.396,20.965,21.905,37.474,42.896,42.843c-20.992,5.396-37.501,21.905-42.896,42.896
			C217.935,1235.614,201.426,1219.105,180.461,1213.71z"/>
		<path style="fill:#FDE41B;" d="M343.284,1020.595c20.965-5.369,37.474-21.878,42.843-42.843
			c5.396,20.965,21.905,37.474,42.897,42.843c-20.992,5.396-37.501,21.905-42.897,42.896
			C380.758,1042.499,364.249,1025.99,343.284,1020.595z"/>
		
			<ellipse transform="matrix(0.9224 -0.3862 0.3862 0.9224 -398.8943 165.1424)" style="fill:#FDE41B;" cx="211.524" cy="1075.255" rx="15.146" ry="15.146"/>
		<path style="opacity:0.21;fill:#C54839;" d="M1614.873,1309.821c-148.077-37.953-280.254-38.01-461.452-47.062
			c-16.028-0.801-36.688,21.9-37.902,37.902c-21.922,289.128,197.73,489.19,462.115,496.603
			c305.267,8.558,531.583-169.261,583.66-430.917C1980.206,1341.592,1791.935,1355.202,1614.873,1309.821z"/>
		
			<ellipse transform="matrix(0.7071 -0.7071 0.7071 0.7071 -793.0671 709.1985)" style="fill:#FDE41B;" cx="459.545" cy="1311.916" rx="17.04" ry="17.04"/>
		<circle style="fill:#FDE41B;" cx="1729.939" cy="901.073" r="15.146"/>
		<circle style="fill:#FDE41B;" cx="1970.386" cy="562.175" r="17.04"/>
		<g>
			<path style="fill:#FF8212;" d="M2192.979,1328.596c-12.959,340.176-222.92,499.355-569.576,489.635
				c-275.44-7.723-530.146-234.48-484.789-542.258c0.636-4.315,5.462-9.245,41.811-20.906c2.816-0.903,6.381,2.067,9.582,1.984
				c97.7-2.532,259.094,234.763,461.852,248.853c179.732,12.49,400.775-188.85,485.693-177.916
				c14.731,1.897,28.399-6.43,37.334-4.823C2186.671,1325.286,2193.034,1327.123,2192.979,1328.596z"/>
			<path style="fill:#FFA000;" d="M1302.245,1533.803c22.927,33.604,50.757,63.383,83.863,86.639
				c18.817,13.218,38.869,24.526,59.473,34.551c24.782,12.058,49.56,23.777,75.576,32.843
				c104.589,36.447,218.413,37.623,324.907,8.866c51.942-14.026,105.005-34.096,150.732-63.305
				c36.724-23.458,65.587-57.495,86.959-95.695c36.615-65.444,53.209-141.624,57.646-216.942
				c-175.718-23.927-734.777-67.448-949.236-66.229c-0.551,3.82-0.98,7.666-1.138,11.574
				c-2.066,51.047,20.744,101.131,42.792,145.604C1254.513,1453.447,1276.02,1495.364,1302.245,1533.803z"/>
			<path style="fill:#FFBB00;" d="M1354.686,1303.215c-0.989,8.861,1.451,16.933,8.552,22.641
				c11.902,9.567,29.615,9.042,43.872,7.616c11.752-1.175,13.746,17.539,2.737,20.228c-10.56,2.58-20.58,7.259-26.233,16.99
				c-5.148,8.863-5.693,19.625-4.641,29.602c2.242,21.272,12.021,41.919,23.564,59.645c11.178,17.164,24.566,31.489,43.981,38.868
				c47.738,18.144,116.607,9.54,145.154-37.307c6.04-9.912,22.07-3.406,18.822,7.935c-8.16,28.491-4.082,56.667,15.227,77.798
				c33.867,37.065,95.398,47.352,142.729,36.457c21.98-5.06,44.57-15.739,56.353-33.609c14.306-21.697,12.594-47.283,3.62-72.585
				c-3.724-10.5,10.094-16.134,17.211-10.019c23.772,20.424,56.354,26.085,86.826,24.106
				c52.633-3.419,110.037-31.025,127.941-83.876c10.989-32.435,7.074-67.248-7.337-97.332
				c-165.001-17.461-441.602-39.226-653.21-49.686C1378.583,1265.719,1357.105,1281.546,1354.686,1303.215z"/>
			<path style="fill:#FEFCDB;" d="M1671.866,1327.296c24.033-9.46,48.626-12.995,72.934-0.126
				c3.593-12.235,11.015-34.223,20.689-42.596c-41.933-3.281-84.806-6.462-127.579-9.451c1.146,6.964,0.714,14.43-0.982,21.479
				C1653.104,1300.162,1664.683,1311.929,1671.866,1327.296z"/>
			<path style="fill:#FEFCDB;" d="M2133.994,1319.984c-5.507,83.864-20.844,173.066-71.23,241.432
				c-27.497,37.31-62.163,64.258-103.58,84.619c-49.413,24.293-101.955,42.36-156.051,52.743
				c-108.659,20.854-221.957,10.729-323.567-33.85c-42.329-18.571-83.864-39.607-119.285-69.689
				c-31.117-26.426-55.91-59.219-77.156-93.884c-25.135-41.011-48.48-84.397-67.27-128.692
				c-15.145-35.701-26.35-79.348-21.658-118.559c-5.627,0.133-13.476,4.888-18.39,5.108c-0.297,1.132,0.029,0.584-0.244,1.724
				c-11.42,47.525-1.599,97.632,14.729,142.785c18.381,50.829,35.628,107.813,67,151.641c28.729,40.134,54.66,67.983,90.563,101.884
				c37.258,35.179,100.418,60.42,148.885,76.453c103.937,34.382,219.472,32.306,325.087,6.584
				c104.149-25.365,192.581-76.928,256.2-165.386c52.989-73.677,69.694-164.422,85.316-253.133
				C2158.391,1320.71,2141.837,1321.194,2133.994,1319.984z"/>
			<path style="fill:#FEFCDB;" d="M1672.898,1319.818c-26.256,44.863-50.045,91.179-74.999,136.772
				c-25.766,47.076-51.462,94.189-77.131,141.318c-6.861,12.598-13.628,25.248-20.451,37.866
				c-6.82,12.611-14.121,25.085-20.297,38.025c-1.06,2.22,2.12,3.689,3.366,1.664c13.276-21.578,24.581-44.59,36.647-66.864
				c12.654-23.36,25.078-46.847,37.577-70.291c25.239-47.34,50.271-94.787,75.709-142.021
				c13.612-25.276,27.458-50.434,40.396-76.064C1673.983,1319.693,1673.191,1319.317,1672.898,1319.818L1672.898,1319.818z"/>
			<path style="fill:#FEFCDB;" d="M1635.946,1292.289c-14.014,0.404-27.807,2.643-41.642,4.81
				c-13.566,2.125-27.093,4.468-40.573,7.086c-27.203,5.283-54.245,11.396-81.07,18.351
				c-53.719,13.929-106.431,31.413-157.869,52.236c-14.446,5.848-28.811,11.913-43.067,18.211
				c-14.077,6.218-28.563,12.166-41.76,20.132c-1.203,0.726-0.197,2.663,1.105,2.183c12.853-4.743,25.135-11.011,37.662-16.544
				c12.804-5.656,25.692-11.118,38.689-16.315c25.51-10.199,51.338-19.554,77.413-28.203
				c52.671-17.473,106.318-32.011,160.722-42.991c15.019-3.031,30.091-5.839,45.193-8.429c15.258-2.617,30.626-4.539,45.704-8.079
				C1637.889,1294.398,1637.304,1292.25,1635.946,1292.289L1635.946,1292.289z"/>
			<path style="fill:#FEFCDB;" d="M1741.236,1321.962c24.609,46.088,51.839,90.801,77.719,136.183
				c25.663,45.003,51.233,90.133,75.582,135.863c6.727,12.634,13.245,25.388,19.362,38.329c6.001,12.696,10.991,25.75,16.547,38.629
				c1.144,2.652,5.074,1.305,4.25-1.498c-6.997-23.794-18.794-46.703-30.158-68.658c-11.877-22.945-24.456-45.539-37.001-68.124
				c-25.351-45.638-51.065-91.118-77.693-136.025c-15.165-25.576-30.299-51.187-46.879-75.879
				C1742.197,1319.641,1740.615,1320.799,1741.236,1321.962L1741.236,1321.962z"/>
			<path style="fill:#FF8C00;" d="M1295.809,1321.498c-3.724,0-2.981,5.749,0.706,5.749
				C1300.239,1327.247,1299.496,1321.498,1295.809,1321.498z"/>
			<path style="fill:#FF8C00;" d="M1255.688,1298.83c0.291-3.107-0.862-6.269-3.461-8.364c-3.445-2.776-8.436-2.985-12.441-1.438
				c-0.81,0.313-1.528,0.836-2.282,1.266c-0.239,0.114-0.46,0.222-0.577,0.287c-3.024,1.684-5.427,4.636-5.844,8.19
				c-0.268,2.282,0.243,4.427,1.1,6.416c-0.092,2.241,0.832,4.876,2.042,6.504c1.547,2.083,4.365,3.89,6.996,4.129
				c3.803,0.345,7.203-1.147,9.401-3.818c0.613-0.299,1.243-0.546,1.825-0.927
				C1256.627,1308.338,1257.432,1303.048,1255.688,1298.83z"/>
			<path style="fill:#FF8C00;" d="M1286.184,1436.207c-4.138,0-3.312,6.388,0.784,6.388
				C1291.106,1442.595,1290.281,1436.207,1286.184,1436.207z"/>
			<path style="fill:#FF8C00;" d="M1338.684,1312.504c-1.086-0.708-2.142-1.555-3.445-1.79c-1.158-0.209-2.455-0.08-3.64-0.08
				c-2.199,0-3.983,2.618-3.642,4.662c0.409,2.461,2.316,3.642,4.662,3.642c1.051,0,2.057,0.057,3.081-0.204
				c1.076-0.275,2.005-1.018,2.929-1.622C1340.115,1316.14,1340.214,1313.501,1338.684,1312.504z"/>
			<path style="fill:#FF8C00;" d="M1362.596,1443.121c-0.317-2.934-2.416-5.738-5.14-7.057c-1.889-2.566-5.245-4.438-8.349-3.776
				c-0.794,0.169-1.591,0.332-2.383,0.508c-4.393,0.977-6.616,2.53-9.646,5.708c-1.941,2.034-2.831,4.429-3.543,7.028
				c-0.051,0.082-0.141,0.249-0.311,0.589c-0.408,0.816-0.748,1.689-1.118,2.524c-3.681,8.307,3.792,18.586,12.952,17.057
				c5.662-0.946,10.62-3.428,13.862-8.322C1361.761,1453.09,1363.154,1448.282,1362.596,1443.121z"/>
			<path style="fill:#FF8C00;" d="M1391.293,1548.521c-7.654,0-6.127,11.818,1.452,11.818
				C1400.4,1560.339,1398.872,1548.521,1391.293,1548.521z"/>
			<path style="fill:#FF8C00;" d="M1535.57,1521.36c-2.483,0-1.987,3.833,0.471,3.833
				C1538.523,1525.193,1538.028,1521.36,1535.57,1521.36z"/>
			<g>
				<path style="fill:#FF8C00;" d="M1628.254,1625.414c-0.391-0.764-0.837-1.569-1.395-2.504
					C1627.324,1623.744,1627.789,1624.579,1628.254,1625.414z"/>
				<path style="fill:#FF8C00;" d="M1630.505,1631.933c-0.645-2.779-1.213-4.476-2.229-6.474c-0.515-0.928-1.003-1.755-1.483-2.516
					c-1.222-3.907-4.351-7.104-8.467-8.216c-0.802-0.217-1.647-0.338-2.499-0.409c-2.453-0.8-5.173-1.273-7.706-0.962
					c-5.431,0.667-8.868,4.426-11.253,8.915c-2.353,4.429-2.288,10.08-0.625,14.725c2.541,7.099,10.521,12.445,18.046,9.71
					c3.102,0.63,6.343,0.314,9.281-1.322c2.196-1.224,3.805-2.818,5.075-4.987
					C1630.026,1638.034,1631.151,1634.715,1630.505,1631.933z"/>
				<path style="fill:#FF8C00;" d="M1628.254,1625.414c0.008,0.016,0.013,0.03,0.021,0.046c0.085,0.155,0.16,0.278,0.248,0.438
					C1628.434,1625.736,1628.344,1625.575,1628.254,1625.414z"/>
			</g>
			<path style="fill:#FF8C00;" d="M1602.396,1531.106c-5.379,0-4.306,8.304,1.02,8.304
				C1608.795,1539.411,1607.722,1531.106,1602.396,1531.106z"/>
			<path style="fill:#FF8C00;" d="M1830.84,1653.532c0.291-3.994-0.148-8.021-1.564-11.904c-2.579-7.071-7.578-11.543-13.9-15.24
				c-6.536-3.822-16.558,1.202-18.919,7.803c-2.855,7.983-2.989,16.736,0.732,24.492c1.075,2.24,2.522,4.36,4.191,6.25
				c1.012,1.371,2.156,2.658,3.593,3.716c1.895,1.395,4.038,2.285,6.245,2.75c2.947,0.787,6.063,0.605,9.186-0.758
				c3.02-1.154,5.626-3.231,7.381-6.202C1829.969,1661.182,1831.134,1657.297,1830.84,1653.532z"/>
			<path style="fill:#FF8C00;" d="M1839.447,1563.059c-7.448,0-5.962,11.499,1.412,11.499
				C1848.307,1574.558,1846.821,1563.059,1839.447,1563.059z"/>
			<path style="fill:#FF8C00;" d="M1990.681,1509.919c-2.29-1.341-4.897-2.086-7.455-2.141c-0.481-0.192-0.925-0.445-1.441-0.584
				c-1.749-0.473-3.482-0.618-5.279-0.812c-2.993-0.323-6.598,0.364-8.996,2.317c-2.73,2.224-4.01,4.858-4.866,8.247
				c-2.25,8.897,4.123,17.345,11.718,21.086c8.531,4.203,19.974,0.393,23.655-8.613
				C2001.177,1521.686,1997.593,1513.965,1990.681,1509.919z"/>
			<path style="fill:#FF8C00;" d="M2081.546,1470.077c-6.827,0-5.465,10.54,1.294,10.54
				C2089.668,1480.618,2088.305,1470.077,2081.546,1470.077z"/>
			<path style="fill:#FF8C00;" d="M2110.421,1353.61c-5.586,0-4.471,8.624,1.059,8.624
				C2117.066,1362.234,2115.952,1353.61,2110.421,1353.61z"/>
			<path style="fill:#FF8C00;" d="M1869.427,1509.863c-0.784-0.106-1.569-0.213-2.353-0.319c-2.484-0.337-4.696,1.642-4.71,4.121
				c-0.013,2.449,2.156,4.517,4.659,4.178l2.357-0.319c1.914-0.26,3.349-1.889,3.36-3.81
				C1872.751,1511.812,1871.352,1510.124,1869.427,1509.863z"/>
			<path style="fill:#FF8C00;" d="M1858.913,1608.591c-4.344,0-3.478,6.707,0.824,6.707
				C1864.081,1615.298,1863.214,1608.591,1858.913,1608.591z"/>
			<path style="fill:#FF8C00;" d="M1714.871,1637.668c-7.034,0-5.631,10.86,1.334,10.86
				C1723.239,1648.528,1721.836,1637.668,1714.871,1637.668z"/>
			<path style="fill:#FF8C00;" d="M1712.985,1476.467c-1.655,0-1.325,2.555,0.314,2.555
				C1714.954,1479.022,1714.624,1476.467,1712.985,1476.467z"/>
			<path style="fill:#FF8C00;" d="M1714.95,1379.492c-6.207,0-4.968,9.582,1.177,9.582
				C1722.333,1389.074,1721.095,1379.492,1714.95,1379.492z"/>
			<path style="fill:#FF8C00;" d="M1502.214,1376.753c-0.442,0-0.354,0.681,0.083,0.681
				C1502.739,1377.434,1502.65,1376.753,1502.214,1376.753z"/>
			<path style="fill:#FF8C00;" d="M1604.694,1331.403c-6.413,0-5.134,9.902,1.216,9.902
				C1612.324,1341.305,1611.044,1331.403,1604.694,1331.403z"/>
			<path style="fill:#FF8C00;" d="M1484.814,1402.818c-7.035,0-5.631,10.859,1.333,10.859
				C1493.182,1413.677,1491.778,1402.818,1484.814,1402.818z"/>
			<path style="fill:#FF8C00;" d="M1448.25,1280.958c-1.18-0.459-2.266-0.913-3.569-0.812c-0.911,0.07-1.821,0.195-2.729,0.292
				c-3.6,0.386-3.709,5.99-0.039,6.384c0.907,0.097,1.816,0.219,2.726,0.292c1.313,0.105,2.382-0.328,3.569-0.79
				C1450.527,1285.421,1450.616,1281.879,1448.25,1280.958z"/>
			<path style="fill:#FF8C00;" d="M1590.472,1354.249c-4.758,0-3.809,7.347,0.902,7.347
				C1596.133,1361.595,1595.184,1354.249,1590.472,1354.249z"/>
			<path style="fill:#FF8C00;" d="M1486.936,1450.907c-9.931,0-7.95,15.332,1.882,15.332
				C1498.749,1466.238,1496.767,1450.907,1486.936,1450.907z"/>
			<path style="fill:#FF8C00;" d="M1450.989,1378.982c-2.675-3.367-6.741-1.856-8.073,1.081
				c-8.928-0.319-15.635,10.139-10.471,17.826c2.155,3.208,5.936,5.668,9.912,5.557c1.126-0.031,2.218-0.405,3.276-0.904
				c0.477-0.112,0.954-0.156,1.43-0.37c4.589-2.059,6.912-6.133,6.7-10.785C1454.607,1387.094,1453.826,1382.552,1450.989,1378.982z
				"/>
			<path style="fill:#FF8C00;" d="M1460.86,1478.098c-0.383,0.057-0.767,0.111-1.15,0.171c-0.128-2.962-2.256-6.114-6.07-6.114
				c-6.467,0-5.971,8.863-0.691,10.769c-0.268,0.266-0.536,0.532-0.803,0.799c-0.949,0.943-1.307,2.89-1.152,4.153
				c0.168,1.371,0.978,2.937,2.122,3.751c1.188,0.845,2.673,1.398,4.154,1.152c1.573-0.262,2.629-1.006,3.751-2.122
				c0.89-0.885,1.78-1.77,2.67-2.655c1.403-1.394,1.717-3.143,2.005-5.01C1466.114,1480.273,1463.599,1477.691,1460.86,1478.098z"/>
			<path style="fill:#FF8C00;" d="M1462.133,1567.467c0.54,0.968,1.079,1.937,1.619,2.906c-0.672-2.042-1.384-3.639-2.589-5.533
				c-1.339-2.105-4.556-3.917-7.015-4.14c-0.453-0.041-0.873-0.003-1.304,0.009c-0.587-0.467-1.208-0.87-1.861-1.233
				c-0.06-0.113-0.08-0.262-0.143-0.371c-2.581-4.455-7.426-7.292-12.647-7.064c-5.625-2.323-11.466,0.097-15.268,4.409
				c-1.246,1.161-2.267,2.543-2.847,4.153c-1.06,2.94-3.407,5.401-4.476,8.476c-1.465,4.216,1.51,7.779,5.014,8.281
				c2.176,5.238,6.064,9.74,11.347,11.761c2.458,0.94,5.062,1.437,7.638,1.474c0.778,0.437,1.554,0.882,2.384,1.208
				c5.394,2.116,11.723,1.628,16.461-1.836c2.341-1.711,4.315-4.217,5.407-6.911c0.973-2.401,1.399-5.675,1.127-8.25
				C1464.671,1571.895,1463.576,1569.942,1462.133,1567.467z"/>
			<path style="fill:#FF8C00;" d="M1476.008,1624.572c-1.817-0.641-3.944-0.832-5.763-0.231c-0.059-0.036-0.104-0.077-0.166-0.113
				c-0.072-0.049-0.154-0.081-0.228-0.126c-0.025-0.02,0.017,0.005-0.021-0.024c-0.162-0.131-0.183-0.134-0.096-0.041
				c-0.05-0.029-0.101-0.056-0.151-0.083c-2.058-2.456-5.593-2.21-7.277,0.81c-2.06,3.694-0.39,8.299,3.045,10.46
				c4.258,2.679,9.574,2.744,13.16-1.112C1481.182,1631.238,1479.587,1625.836,1476.008,1624.572z"/>
			<path style="fill:#FF8C00;" d="M1426.36,1597.801c-0.434-2.605-2.346-4.593-4.974-5.035c-4.963-0.836-8.878,3.396-9.398,8.051
				c-0.475,4.25,1.835,9.251,6.622,9.497c1.979,0.102,3.736-0.594,4.777-2.371c0.839-1.433,0.785-2.91,0.201-4.326
				c-0.01-0.039-0.015-0.062-0.029-0.115c0.095-0.061,0.091-0.068-0.006-0.023c-0.015-0.056-0.011-0.044-0.029-0.115
				C1425.363,1602.115,1426.755,1600.178,1426.36,1597.801z"/>
			<path style="fill:#FF8C00;" d="M1353.009,1541.811c-7.034,0-5.631,10.86,1.334,10.86
				C1361.377,1552.671,1359.974,1541.811,1353.009,1541.811z"/>
			<path style="fill:#FF8C00;" d="M1329.32,1417.036c-4.138,0-3.312,6.388,0.784,6.388
				C1334.242,1423.423,1333.416,1417.036,1329.32,1417.036z"/>
			<path style="fill:#FF8C00;" d="M1506.264,1476.149c-8.276,0-6.624,12.776,1.569,12.776
				C1516.108,1488.925,1514.457,1476.149,1506.264,1476.149z"/>
			<path style="fill:#FF8C00;" d="M1701.18,1621.609c-1.862-1.09-4.006-1.441-6.133-1.391c-2.891-2.957-7.604-4.329-11.472-3.892
				c-7.715,0.871-14.26,6.914-15.578,14.591c-1.268,7.389,2.497,14.407,8.831,18.116c6.394,3.743,14.401,3.563,20.421-0.996
				c4.176-3.163,6.764-7.526,8.767-12.272C1708.231,1630.516,1705.996,1624.429,1701.18,1621.609z"/>
			<path style="fill:#FF8C00;" d="M1606.659,1653.806c-10.965,0-8.777,16.929,2.079,16.929
				C1619.703,1670.734,1617.515,1653.806,1606.659,1653.806z"/>
			<path style="fill:#FF8C00;" d="M1576.533,1594.854c-0.459-1.017-1.151-1.859-2.076-2.528c-0.215-0.156-0.429-0.311-0.644-0.466
				c-0.559-0.327-1.117-0.654-1.676-0.981c-0.88-0.404-1.793-0.569-2.738-0.495c-0.627-0.081-1.235-0.007-1.823,0.224
				c-0.935,0.157-1.781,0.538-2.537,1.143c-0.208,0.15-0.416,0.3-0.623,0.45c-0.53,0.518-1.06,1.036-1.59,1.554
				c-0.736,0.872-1.204,1.858-1.403,2.955c-0.277,0.674-0.372,1.373-0.286,2.097c-0.093,0.717-0.008,1.413,0.256,2.086
				c0.18,1.07,0.616,2.038,1.307,2.904c0.518,0.53,1.036,1.06,1.554,1.589c0.639,0.374,1.278,0.749,1.918,1.123
				c1.008,0.462,2.052,0.651,3.134,0.566c0.717,0.093,1.413,0.008,2.086-0.256c0.723-0.091,1.378-0.353,1.965-0.785
				c1.017-0.459,1.86-1.151,2.528-2.076c0.374-0.639,0.749-1.279,1.123-1.918c0.187-0.691,0.374-1.383,0.56-2.074
				c0.004-0.706,0.008-1.412,0.012-2.119C1577.486,1596.748,1577.137,1595.75,1576.533,1594.854z"/>
			<path style="fill:#FF8C00;" d="M1539.951,1637.828c-6.827,0-5.465,10.54,1.294,10.54
				C1548.073,1648.369,1546.711,1637.828,1539.951,1637.828z"/>
			<path style="fill:#FF8C00;" d="M1801.085,1574.882c-7.655,0-6.128,11.818,1.451,11.818
				C1810.191,1586.7,1808.663,1574.882,1801.085,1574.882z"/>
			<path style="fill:#FF8C00;" d="M1964.043,1570.089c-7.655,0-6.128,11.818,1.451,11.818
				C1973.149,1581.907,1971.621,1570.089,1964.043,1570.089z"/>
			<path style="fill:#FF8C00;" d="M1927.127,1525.037c-0.508-1.125-1.274-2.058-2.298-2.798c-0.039-0.027-0.08-0.054-0.119-0.08
				c-1.984-1.353-2.628-1.528-4.94-2.075c-0.932-0.221-2.175-0.14-2.962-0.093c-1.666,0.101-3.495,0.867-4.832,1.847
				c-2.098,1.536-3.513,3.887-3.865,6.467c-0.234,1.716-0.005,3.262,0.586,4.878c0.312,0.854,0.846,1.609,1.301,2.397
				c0.738,1.07,1.681,1.878,2.83,2.423c1.013,0.72,2.152,1.141,3.416,1.263c1.218,0.207,2.399,0.114,3.543-0.282
				c0.726-0.122,1.397-0.384,2.039-0.716c1.004-0.292,1.97-0.694,2.823-1.321c1.98-1.458,3.287-3.694,3.623-6.128
				c0.112-0.814,0.117-1.656,0.015-2.471C1928.181,1527.132,1927.795,1526.028,1927.127,1525.037z"/>
			<path style="fill:#FF8C00;" d="M2080.494,1436.12c-3.007-0.372-6.039-0.042-8.864,1.082c-3.321,1.322-6.327,4.139-7.712,7.466
				c-1.315,3.158-1.321,7.229,0.026,10.431c1.805,4.29,5,7.772,9.587,9.011c6.25,1.689,13.048-1.051,15.773-6.832
				c1.214-1.323,2.013-2.941,2.384-4.868c0.109-0.568,0.146-1.166,0.147-1.765C2092.916,1443.613,2087.521,1436.99,2080.494,1436.12
				z"/>
			<path style="fill:#FF8C00;" d="M2105.713,1385.004c-0.556-2.353-1.386-4.652-3.471-6.135c-1.696-1.207-3.523-1.866-5.615-1.877
				c-1.923-0.01-4.013,0.489-5.546,1.738c-0.589,0.576-1.177,1.151-1.767,1.727c-1.02,1.313-1.643,2.792-1.871,4.438
				c-0.612,2.585-0.069,5.034,0.904,7.454c1.335,3.321,4.633,5.487,8.171,5.506c3.484,0.019,6.893-2.062,8.226-5.378
				C2105.73,1390.025,2106.333,1387.628,2105.713,1385.004z"/>
			<path style="fill:#FF8C00;" d="M1997.632,1371.504c-7.241,0-5.796,11.179,1.373,11.179
				C2006.246,1382.683,2004.801,1371.504,1997.632,1371.504z"/>
			<path style="fill:#FF8C00;" d="M1903.941,1434.127c-0.852-1.046-1.905-1.635-3.231-1.906c-0.777-0.16-1.555-0.319-2.332-0.479
				c-1.348-0.276-2.775,0.253-3.876,0.998c-1.392,0.942-2.092,2.612-2.101,4.233c-0.008,1.455,0.483,2.667,1.5,3.707
				c1.097,1.122,2.794,1.927,4.414,1.596c0.779-0.16,1.558-0.32,2.338-0.479c1.219-0.25,2.46-0.758,3.216-1.819
				c0.632-0.889,0.978-1.846,0.984-2.943C1904.857,1436.026,1904.596,1434.931,1903.941,1434.127z"/>
			<path style="fill:#FF8C00;" d="M1874.092,1339.381c-0.717-0.194-1.445-0.233-2.182-0.303c-2.678-0.254-5.057,1.677-5.072,4.439
				c-0.015,2.721,2.319,4.755,5.018,4.499c0.546-0.052,1.097-0.086,1.64-0.156c2.113-0.273,3.867-2.16,3.878-4.294
				C1877.385,1341.62,1875.954,1339.884,1874.092,1339.381z"/>
			<path style="fill:#FF8C00;" d="M2027.933,1417.944c-3.028-3.926-7.043-6.011-11.776-7.14c-2.07-0.494-4.147-0.104-5.999,0.823
				c-0.344,0.018-0.708-0.051-1.042,0c-11.502,1.769-17.208,14.365-13.858,24.823c3.181,9.93,14.342,13.722,23.63,10.684
				c8.107-2.652,13.592-10.474,12.971-19.006C2031.598,1424.53,2030.137,1420.801,2027.933,1417.944z"/>
			<path style="fill:#FF8C00;" d="M1930.394,1387.161c-8.689,0-6.955,13.415,1.647,13.415
				C1940.731,1400.576,1938.997,1387.161,1930.394,1387.161z"/>
			<path style="fill:#FF8C00;" d="M1978.558,1326.77c-6.207,0-4.969,9.582,1.176,9.582
				C1985.942,1336.352,1984.703,1326.77,1978.558,1326.77z"/>
			<path style="fill:#FF8C00;" d="M1741.098,1470.329c-4.452-2.077-9.197-1.87-12.967,0.963c-0.156,0.026-0.329-0.02-0.481,0.018
				c-5.23,1.318-11.301,2.318-9.412,12.51c0.218,1.174,0.527,2.388,1.033,3.471c0.646,1.383,1.421,2.691,2.419,3.835
				c2.208,2.533,4.914,4.53,8.126,5.592c8.184,2.708,19.166-1.862,20.396-11.248
				C1751.124,1478.513,1747.157,1473.156,1741.098,1470.329z"/>
			<path style="fill:#FF8C00;" d="M1718.576,1561.689c-0.332-2.682-2.721-4.843-5.405-4.858c-0.676-0.004-1.376,0.1-2.003,0.379
				c-0.404,0.18-0.943,0.478-1.29,0.749c-0.983,0.769-1.653,1.778-1.977,2.979c-0.209,0.772-0.265,1.53-0.341,2.323
				c-0.143,1.509,0.218,2.868,1.059,4.111c0.999,1.477,2.77,2.219,4.489,2.228c0.727,0.065,1.433-0.053,2.116-0.352
				c0.722-0.256,1.327-0.669,1.816-1.239c0.593-0.486,1.027-1.097,1.303-1.832c0.376-0.916,0.506-1.866,0.388-2.85
				C1718.679,1562.783,1718.643,1562.234,1718.576,1561.689z"/>
			<path style="fill:#FF8C00;" d="M1669.116,1518.704c-0.522-0.938-1.218-1.48-2.172-1.985c-0.655-0.347-1.309-0.693-1.964-1.04
				c-0.917-0.377-1.866-0.506-2.85-0.389c-0.983,0.124-1.873,0.48-2.671,1.067c-1.452,1.078-2.219,2.711-2.228,4.489
				c-0.01,1.756,0.71,3.371,2.119,4.472c0.803,0.623,1.708,1.005,2.713,1.144c0.975,0.127,1.92,0.01,2.836-0.348
				c0.66-0.349,1.32-0.698,1.98-1.047c0.706-0.374,1.382-0.77,1.885-1.413c0.617-0.79,0.913-1.756,0.918-2.747
				C1669.686,1520.103,1669.507,1519.406,1669.116,1518.704z"/>
			<path style="fill:#FF8C00;" d="M1796.537,1529.936c-0.069-1.029-0.803-2.3-1.638-2.894c-0.8-0.569-1.662-0.88-2.649-0.886
				c-2.034-0.011-4.186,1.556-4.332,3.727c-0.053,0.792-0.106,1.583-0.159,2.375c-0.082,1.22,0.164,2.279,0.847,3.289
				c0.799,1.181,2.216,1.775,3.591,1.782c1.234,0.007,2.263-0.41,3.145-1.272c1.055-1.031,1.452-2.282,1.354-3.745
				L1796.537,1529.936z"/>
			<path style="fill:#FF8C00;" d="M1733.769,1390.996c-9.931,0-7.949,15.331,1.883,15.331
				C1745.582,1406.327,1743.6,1390.996,1733.769,1390.996z"/>
			<path style="fill:#FF8C00;" d="M1688.354,1415.919c-8.69,0-6.956,13.415,1.647,13.415
				C1698.69,1429.333,1696.957,1415.919,1688.354,1415.919z"/>
			<path style="fill:#FF8C00;" d="M1695.7,1448.35c-7.034,0-5.631,10.86,1.333,10.86
				C1704.068,1459.209,1702.664,1448.35,1695.7,1448.35z"/>
			<path style="fill:#FF8C00;" d="M1616.225,1509.859c-11.172,0-8.943,17.248,2.118,17.248
				C1629.515,1527.107,1627.286,1509.859,1616.225,1509.859z"/>
			<path style="fill:#FF8C00;" d="M1333.858,1400.581c-6.827,0-5.465,10.54,1.294,10.54
				C1341.979,1411.121,1340.617,1400.581,1333.858,1400.581z"/>
			<path style="opacity:0.39;fill:#FF8C00;" d="M1660.14,1325.438c-43.495,45.081-72.703,109.295-104.622,162.747
				c-28.674,48.018-64.078,98.133-84.617,150.721c-0.585-1.284-1.362-2.527-2.592-3.606c-19.884-17.439-47.398-26.195-69.316-41.502
				c-22.662-15.827-43.618-34.128-62.393-54.411c-36.208-39.117-55.41-87.744-87.567-129.175c-2.833-3.65-7.88-1.059-7.801,3.12
				c1.063,56.251,43.188,110.83,80.459,149.726c33,34.438,89.199,85.793,139.261,89.705c2.105,0.164,3.925-0.33,5.509-1.135
				c-1.434,9.75,11.098,16.921,18.134,8.201c37.698-46.714,63.656-106.632,92.808-158.859
				c30.478-54.601,72.379-110.594,91.825-170.223C1671.135,1324.899,1664.316,1321.109,1660.14,1325.438z"/>
			<path style="opacity:0.39;fill:#FF8C00;" d="M1617.957,1280.413c-61.33-12.558-134.553,15.172-192.098,34.88
				c-32.533,11.142-64.607,23.565-96.751,35.77c-17.031,6.467-33.983,13.122-50.976,19.685c-9.41,3.634-18.852,7.127-28.135,11.075
				c-3.555,1.564-7.099,3.151-10.635,4.758c-4.373-16.374-12.838-31.569-17.975-47.832c-7.466-23.639-13.08-48.446-17.545-72.837
				c-0.771-4.209-7.02-4.545-7.66-0.047c-5.619,39.492-0.749,96.769,27.944,128.764c-0.152,2.075,0.668,4.325,2.183,5.692
				c13.357,12.051,45.6-4.797,59.791-9.542c36.505-12.206,72.201-26.616,108.296-39.958c38.61-14.272,77.65-27.848,117.693-37.563
				c35.402-8.589,72.545-10.166,107.386-20.486C1626.159,1290.794,1623.673,1281.584,1617.957,1280.413z"/>
			<path style="opacity:0.39;fill:#FF8C00;" d="M1910.167,1651.556c-4.189-24.759-17.546-46.488-28.735-69.053
				c-15.131-30.514-30.529-60.871-46.106-91.159c-28.539-55.493-57.646-109.908-92.753-161.583
				c-3.282-4.831-10.437-0.362-8.641,4.818c21.613,62.362,49.799,121.163,78.784,180.36c13.973,28.538,28.229,56.917,42.62,85.246
				c8.78,17.283,16.357,34.651,27.421,49.799c-23.432,5.244-47.095,14.483-70.583,18.975
				c-37.371,7.147-75.059,12.967-113.081,15.104c-37.01,2.08-74.094,0.222-110.553-6.682c-30.407-5.758-60.445-22.457-91.422-21.822
				c-3.956,0.081-5.345,5.109-3.398,7.925c18.262,26.41,55.468,34.196,85.203,41.004c38.357,8.781,78.157,10.35,117.364,8.575
				c42.253-1.912,84.176-8.648,125.625-16.793c25.112-4.935,62.639-7.539,82.089-27.083c4.045-0.471,7.643-4.369,7.318-8.819
				c-0.042-0.578-0.169-1.128-0.222-1.702C1911.614,1656.182,1911.299,1653.652,1910.167,1651.556z"/>
			<path style="opacity:0.39;fill:#FF8C00;" d="M2122.303,1359.028c-16.254,59.43-37.937,120.088-73.96,170.642
				c-16.24,22.791-35.279,43.92-57.268,61.297c-19.312,15.263-41.802,25.905-59.029,43.619c-3.467,3.566-0.507,11.043,4.526,11.117
				c53.581,0.791,103.807-52.784,132.318-93.402c39.875-56.807,57.685-122.39,61.73-191.022
				C2130.889,1356.745,2123.69,1353.96,2122.303,1359.028z"/>
			<path style="opacity:0.39;fill:#FF8C00;" d="M1489.098,1530.433c-0.676-1.617-2.457-2.556-4.16-2.093
				c-1.758,0.479-2.708,1.997-2.638,3.783c-0.419-0.012-0.818-0.129-1.254,0.005c-2.453,0.757-3.493,3.61-2.577,5.892
				c0.813,2.026,2.873,3.658,5.056,3.876c2.83,0.284,5.255-1.666,6.289-4.201C1490.798,1535.281,1490.057,1532.73,1489.098,1530.433
				z"/>
			<path style="opacity:0.39;fill:#FF8C00;" d="M1400.089,1496.476c-0.409,0.035-0.779,0.206-1.182,0.269
				c-0.261-0.158-0.476-0.374-0.78-0.469c-3.683-1.153-7.642-0.07-9.954,3.138c-2.543,3.53-1.664,8.411,1.51,11.225
				c3.271,2.9,7.407,2.473,10.771-0.005c2.857-2.105,4.626-5.318,4.875-8.856
				C1405.546,1498.694,1403.251,1496.206,1400.089,1496.476z"/>
			<path style="opacity:0.39;fill:#FF8C00;" d="M1428.991,1452.069c-1.309-4.753-7.328-6.311-11.431-4.925
				c-0.522,0.177-0.851,0.536-1.307,0.771c-4.871-0.594-10.057,2.423-11.943,6.951c-2.466,5.924,0.405,14.021,6.656,16.305
				c6.696,2.446,14.379-0.785,17.391-7.18C1430.21,1460.058,1430.118,1456.16,1428.991,1452.069z"/>
			<path style="opacity:0.39;fill:#FF8C00;" d="M1398.164,1388.27c-0.07-0.114-0.139-0.245-0.23-0.343
				c-0.144-0.156-0.14-0.123-0.118-0.075c-0.022-0.04-0.044-0.079-0.124-0.208c-1.025-1.654-2.327-2.815-4.267-3.251
				c-0.005-0.001-0.008,0.002-0.013,0.002c-0.411-0.379-0.83-0.753-1.463-0.924c-1.529-0.413-3.012,0.137-4.043,1.319
				c-0.994,1.141-1.51,2.727-1.401,4.226c0.12,1.644,1.192,3.015,2.315,4.119c1.937,1.903,5.587,2.956,7.91,1.152
				c0.972-0.755,1.721-1.772,2.043-2.962C1399.076,1390.202,1398.751,1389.23,1398.164,1388.27z"/>
			<path style="opacity:0.39;fill:#FF8C00;" d="M1348.464,1388.682c-2.89,1.011-5.818,1.759-8.25,3.675
				c-3.087,2.432-0.349,7.008,3.264,5.854c2.92-0.933,5.194-2.98,7.629-4.791
				C1353.643,1391.534,1351.358,1387.669,1348.464,1388.682z"/>
			<path style="opacity:0.39;fill:#FF8C00;" d="M1339.969,1299.709c-2.586-1.46-5.125-1.479-7.636-0.559
				c-2.339-0.763-4.688-0.699-6.625,0.605c-3.092,0.849-6.194,2.941-8.177,5.314c-0.999,1.196-1.665,2.571-2.175,4.004
				c-1.735,1.681-2.607,4.145-1.776,6.577c0,0.034,0,0.069,0,0.104c0.175,1.425,0.797,2.989,1.653,4.141
				c0.195,0.262,0.463,0.461,0.682,0.703c3.696,8.11,14.275,11.531,21.571,5.72c4.432-3.529,6.161-8.643,5.529-13.688
				c0.547-1.278,1.052-2.589,1.369-4.025C1345.139,1305.178,1342.829,1301.324,1339.969,1299.709z"/>
			<path style="opacity:0.39;fill:#FF8C00;" d="M1273.745,1336.152c0.224-0.82,0.379-1.699,0.37-2.714
				c-0.117-12.428-18.609-10.198-26.836-9.221c-5.02,0.597-9.846,6.883-7.063,11.915c1.725,3.118,4.263,8.367,4.284,11.942
				c0.027,4.665,5.11,8.298,9.364,8.257c1.543-0.015,2.879-0.44,4.106-1.037c0.184,0.049,0.358,0.131,0.544,0.171
				c2.487,0.66,5.059,0.673,7.572,0.152c0.54-0.112,1.034-0.31,1.542-0.483c5.874,0.238,11.823-3.393,11.914-10.512
				C1279.593,1340.594,1277.002,1337.65,1273.745,1336.152z"/>
			<path style="opacity:0.39;fill:#FF8C00;" d="M1287.688,1291.478c-0.712-0.547-1.921-1.107-3.028-1.195
				c-0.716-2.126-3.036-3.731-5.249-3.363c-2.793,0.465-4.523,2.773-4.343,5.559c0.181,2.802,1.987,5.248,4.35,6.631
				c3.224,1.888,7.989,1.919,9.746-2.01C1290.015,1295.197,1289.323,1292.734,1287.688,1291.478z"/>
			<path style="opacity:0.39;fill:#FF8C00;" d="M1288.549,1269.776h-7.34c-1.051,0-1.787,1.205-1.681,2.152
				c0.127,1.141,1.115,1.681,2.152,1.681h7.34c1.051,0,1.787-1.205,1.682-2.152
				C1290.573,1270.317,1289.586,1269.776,1288.549,1269.776z"/>
			<path style="opacity:0.39;fill:#FF8C00;" d="M1451.511,1281.718c-1.91,1.811-4.111,3.078-6.68,3.741
				c-2.668,0.688-4.955-0.1-7.606-0.191c-4.214-0.145-8.114,5.759-3.618,8.588c5.302,3.337,11.991,2.454,17.297-0.661
				c1.487,0.539,3.307,0.113,4.341-1.854c0.833-1.585,1.665-3.169,2.498-4.754
				C1459.566,1283.117,1454.428,1278.954,1451.511,1281.718z"/>
			<path style="opacity:0.39;fill:#FF8C00;" d="M1412.452,1295.415c-2.748-3.857-8.241-4.233-11.515-0.924
				c-1.833,1.853,0.765,4.952,2.98,3.978c0.472-0.208,0.671-0.193,0.909-0.113c-0.225,0.374-0.45,0.748-0.652,1.135
				c-0.049,0.183-0.117,0.359-0.189,0.533c-0.14,0.136-0.178,0.174-0.417,0.404c-0.314,0.377-0.538,0.795-0.674,1.253
				c-0.765,2.281,0.145,4.226,2.214,5.369c2.984,1.648,7.106-1.052,8.463-3.651
				C1414.808,1301.032,1413.953,1297.521,1412.452,1295.415z"/>
			<path style="opacity:0.39;fill:#FF8C00;" d="M1518.676,1350.186c-3.314-4.314-8.566-7.122-14.108-6.481
				c-5.87,0.678-10.446,5.68-11.313,11.417c-0.772,5.113,1.232,10.12,5.305,13.294c0.423,0.33,0.967,0.471,1.434,0.74
				c1.28,1.521,3.027,2.654,5.2,2.959c1.239,0.174,2.539,0.203,3.779,0.045c0.968-0.123,2.915-0.264,3.692-1.034
				c-0.47,0.12-0.939,0.24-1.41,0.36c0.951-0.228,1.897-0.472,2.839-0.733c2.695-1.1,4.761-3.141,5.984-5.776
				C1522.249,1360.294,1521.874,1354.348,1518.676,1350.186z"/>
			<path style="opacity:0.39;fill:#FF8C00;" d="M1553.86,1383.687c-0.199-0.532-0.399-1.065-0.598-1.597
				c-0.176-0.315-0.352-0.631-0.528-0.947c-0.261-0.267-0.523-0.535-0.784-0.802c-0.734-0.573-1.63-0.848-2.551-0.853
				c-0.747-0.004-1.393,0.162-2.046,0.525c-0.793,0.442-1.516,1.143-1.843,2.017l-0.595,1.588c-0.596,1.594-0.451,3.343,0.581,4.732
				c0.533,0.708,1.207,1.234,2.022,1.58c0.587,0.269,1.195,0.379,1.826,0.33c0.623,0.055,1.228-0.045,1.813-0.302
				c0.807-0.324,1.481-0.829,2.019-1.514C1554.242,1387.082,1554.46,1385.29,1553.86,1383.687z"/>
			<path style="opacity:0.39;fill:#FF8C00;" d="M1455.527,1498.935c-1.136-2.668-4.797-4.848-7.656-3.299
				c-0.876,0.475-1.807,0.824-2.744,1.165c-0.726-0.722-1.381-1.326-0.153,0.007c-2.446-2.656-6.537-3.984-9.682-1.432
				c-1.953,1.585-3.565,3.657-3.911,6.232c-0.288,2.14,0.217,4.504,0.986,6.487c1.833,4.723,6.706,7.578,11.615,7.605
				C1452.434,1515.746,1458.923,1506.91,1455.527,1498.935z"/>
			<path style="opacity:0.39;fill:#FF8C00;" d="M1365.85,1477.677c-2.584-3.564-6.711-3.949-10.307-2.51
				c-2.379-0.502-4.97-0.171-7.21,0.835c-3.413,0.391-6.334,1.828-8.273,5.141c-2.287,3.906-1.729,8.067,0.568,11.828
				c0.461,0.753,1.112,1.316,1.709,1.934c1.621,3.818,4.412,6.916,8.314,8.727c5.759,2.671,12.75-0.172,15.812-5.402
				c1.624-2.773,2.097-6.332,1.381-9.58C1368.687,1484.903,1368.115,1480.801,1365.85,1477.677z"/>
			<path style="opacity:0.39;fill:#FF8C00;" d="M1321.279,1427.466c-4.633-3.883-10.997-1.436-15.359,1.621
				c-2.08,1.457-2.633,4.478-1.39,6.622c1.329,2.294,3.866,3.121,6.364,2.298c1.185-0.391,2.784-0.448,4.28-0.688
				c1.657-0.267,3.139-0.737,4.58-1.43c0.402-0.144,0.786-0.31,1.146-0.555c0.093-0.058,0.192-0.076,0.285-0.138
				c-0.013-0.023-0.026-0.046-0.038-0.068c0.707-0.545,1.315-1.215,1.628-1.967
				C1323.615,1431.146,1322.921,1428.842,1321.279,1427.466z"/>
			<path style="opacity:0.39;fill:#FF8C00;" d="M1621.037,1569.605c-0.149-1.218-0.517-2.582-1.013-3.726
				c-0.358-0.825-1.152-2.261-1.677-2.99c-0.136-0.188-0.275-0.355-0.435-0.525c-0.774-0.792-1.549-1.584-2.323-2.377
				c-1.304-1.101-2.777-1.8-4.418-2.098c-0.927-0.381-1.889-0.505-2.879-0.426c-0.223-0.054-0.442-0.127-0.665-0.178
				c-3.809-0.864-8.666,1.31-10.872,4.428c-1.464,2.069-2.489,4.178-2.86,6.705c-0.34,2.314-0.019,4.752,0.773,6.941
				c0.396,1.094,1.04,2.162,1.666,3.131c0.14,0.216,0.281,0.419,0.444,0.618c0.921,1.127,2.028,2.321,3.282,3.127
				c1.89,1.214,3.097,1.826,5.139,2.378c1.709,0.462,1.197,0.414,2.956,0.424c1.432,0.008,2.824-0.195,4.177-0.715
				c0.95-0.365,1.964-0.961,2.792-1.526c1.589-1.084,2.909-2.722,3.79-4.537c0.108-0.194,0.316-0.31,0.405-0.519
				c0.984-1.68,0.766-1.192,1.269-3.051C1621.053,1572.965,1621.264,1571.45,1621.037,1569.605z"/>
			<path style="opacity:0.39;fill:#FF8C00;" d="M1577.952,1516.719c-8.276,0-6.625,12.776,1.569,12.776
				C1587.797,1529.495,1586.145,1516.719,1577.952,1516.719z"/>
			<path style="opacity:0.39;fill:#FF8C00;" d="M1720.945,1579.744c-6.157-7.557-18.306-6.861-24.309,0.559
				c-2.719,3.361-3.979,7.906-3.554,12.193c0.218,2.201,0.844,4.227,1.907,6.135c1.642,2.948,3.814,4.377,6.683,6.028
				c3.962,2.28,10.134,0.121,12.691-3.333c1.631-2.203,3.415-4.338,4.31-6.954c1.084-0.81,2.078-1.766,2.827-3.044
				C1723.523,1587.875,1723.585,1582.984,1720.945,1579.744z"/>
			<path style="opacity:0.39;fill:#FF8C00;" d="M1787.048,1619.141c-0.459-1.401-1.408-2.616-2.274-3.794
				c-1.841-2.506-5.673-3.128-8.164-1.208c-3.329,2.566-4.999,6.407-4.735,10.573c0.163,2.559,2.659,4.466,5.08,4.479
				c0.091,0,0.17-0.042,0.26-0.046c0.602,0.228,1.21,0.412,1.792,0.504c3.235,0.507,6.569-1.305,7.843-4.339
				C1787.694,1623.302,1787.729,1621.215,1787.048,1619.141z"/>
			<path style="opacity:0.39;fill:#FF8C00;" d="M1797.703,1531.016c-0.01-0.018-0.016-0.028-0.026-0.047
				c1.513-2.796,1.808-6.172,0.661-9.167c-1.629-4.254-5.519-6.793-9.92-7.32c-11.74-1.407-21.518,10.92-16.789,21.916
				c2.367,5.502,7.69,8.988,13.634,9.238c2.761,0.116,5.239-0.142,7.861-1.114c2.327-0.862,4.432-2.957,5.373-5.218
				c0.71-1.706,0.388-1.738,0.682-2.831C1799.631,1534.798,1798.907,1532.69,1797.703,1531.016z"/>
			<path style="opacity:0.39;fill:#FF8C00;" d="M1966.806,1445.178c-4.806-1.044-10.192,0.133-14.075,3.214
				c-0.792,0.628-1.498,1.377-2.175,2.145c-0.489-0.484-0.97-0.973-1.532-1.407c-6.597-5.091-16.073-0.703-21.128,4.517
				c-9.729,10.046-7.834,24.476,1.269,32.742c1.748,6.929,6.937,13.222,14.389,14.299c2.943,0.425,6.203,0.144,9.349-0.735
				c0.178-0.013,0.35,0.012,0.529-0.007c7.211-0.768,14.208-6.211,14.356-13.851c0.005-0.243-0.044-0.498-0.055-0.745
				c0.744-5.03-0.977-10.313-4.639-14.011c0.168-0.179,0.371-0.34,0.526-0.522c3.63,2.971,9.086,3.323,12.543-1.155
				C1983.295,1460.426,1978.063,1447.624,1966.806,1445.178z"/>
			<path style="opacity:0.39;fill:#FF8C00;" d="M2018.328,1470.361c-8.896,0-7.122,13.734,1.686,13.734
				C2028.91,1484.096,2027.135,1470.361,2018.328,1470.361z"/>
			<path style="opacity:0.39;fill:#FF8C00;" d="M2075.883,1362.414c-1.028-0.053-2.056-0.106-3.084-0.159
				c-1.817-0.094-3.431,1.07-3.441,3.012c-0.01,1.907,1.573,3.147,3.405,3.053c1.029-0.053,2.057-0.106,3.086-0.159
				c1.44-0.074,2.513-1.509,2.521-2.858C2078.376,1363.962,2077.332,1362.488,2075.883,1362.414z"/>
			<path style="opacity:0.39;fill:#FF8C00;" d="M1862.698,1346.405c-3.117,0.522-5.91-0.549-7.916-2.865
				c-0.464-0.723-1.097-1.347-1.867-1.778c-2.25-1.262-4.033,1.88-2.866,3.668c0.194,0.297,0.448,0.532,0.655,0.816
				c-0.042,0.043-0.015,0.052-0.131,0.119c-2.691,1.549,0.216,5.409,2.878,3.877c0.232-0.134,0.396-0.308,0.589-0.466
				c2.473,2.057,5.37,3.569,8.612,4.29C1868.043,1355.264,1868.444,1345.442,1862.698,1346.405z"/>
			<path style="opacity:0.39;fill:#FF8C00;" d="M1820.693,1355.981c-3.588-2.372-7.696-4.094-11.535-6.022
				c-3.144-1.579-5.241,3.476-2.102,5.052c3.622,1.819,7.25,4,11.063,5.376C1820.706,1361.321,1823.237,1357.662,1820.693,1355.981z
				"/>
			<path style="opacity:0.39;fill:#FF8C00;" d="M1855.078,1406.771c-8.069,0-6.459,12.456,1.529,12.456
				C1864.676,1419.227,1863.066,1406.771,1855.078,1406.771z"/>
			<path style="opacity:0.39;fill:#FF8C00;" d="M2024.108,1351.478c-6,0-4.803,9.263,1.137,9.263
				C2031.245,1360.741,2030.047,1351.478,2024.108,1351.478z"/>
			<path style="opacity:0.21;fill:#FFC999;" d="M1349.67,1672.22c-4.552,0-3.643,7.027,0.863,7.027
				C1355.084,1679.246,1354.176,1672.22,1349.67,1672.22z"/>
			<path style="opacity:0.21;fill:#FFC999;" d="M1263.548,1562.102c-5.793,0-4.637,8.943,1.098,8.943
				C1270.439,1571.046,1269.283,1562.102,1263.548,1562.102z"/>
			<path style="opacity:0.21;fill:#FFC999;" d="M1279.97,1627.301c-7.034,0-5.631,10.86,1.333,10.86
				C1288.338,1638.161,1286.934,1627.301,1279.97,1627.301z"/>
			<path style="opacity:0.21;fill:#FFC999;" d="M1229.338,1548.072c-0.349-0.964-0.698-1.928-1.047-2.892
				c-0.571-1.578-2.242-2.594-3.862-2.603c-1.603-0.009-3.319,0.966-3.889,2.542c-0.347,0.958-0.693,1.917-1.04,2.875
				c-0.639,1.766-0.505,3.665,0.639,5.206c1.017,1.369,2.557,2.092,4.233,2.1
				C1228.146,1555.322,1230.605,1551.574,1229.338,1548.072z"/>
			<path style="opacity:0.21;fill:#FFC999;" d="M1200.738,1443.339c-5.379,0-4.306,8.304,1.019,8.304
				C1207.137,1451.644,1206.064,1443.339,1200.738,1443.339z"/>
			<path style="opacity:0.21;fill:#FFC999;" d="M1206.332,1521.55c-0.816-2.054-2.872-3.392-5.051-3.404
				c-1.969-0.01-3.72,0.994-4.714,2.691c-0.502,0.857-0.739,1.708-0.745,2.702c-0.006,1.089,0.266,2.463,1.032,3.295l1.809,1.965
				c0.723,0.785,1.472,1.267,2.566,1.273c1.064,0.005,1.843-0.441,2.555-1.211l1.775-1.921c0.247-0.422,0.494-0.844,0.741-1.266
				c0.124-0.457,0.247-0.913,0.37-1.369C1206.79,1523.419,1206.662,1522.38,1206.332,1521.55z"/>
			<path style="opacity:0.21;fill:#FFC999;" d="M1180.676,1431.659c-7.655,0-6.128,11.818,1.451,11.818
				C1189.782,1443.477,1188.254,1431.659,1180.676,1431.659z"/>
			<path style="opacity:0.21;fill:#FFC999;" d="M1395.646,1732.354c-8.068,0-6.459,12.457,1.529,12.457
				C1405.245,1744.811,1403.634,1732.354,1395.646,1732.354z"/>
			<path style="opacity:0.21;fill:#FFC999;" d="M1488.325,1759.295c-7.448,0-5.962,11.499,1.412,11.499
				C1497.185,1770.794,1495.698,1759.295,1488.325,1759.295z"/>
			<path style="opacity:0.21;fill:#FFC999;" d="M1395.882,1701.192c-5.586,0-4.472,8.624,1.059,8.624
				C1402.526,1709.816,1401.412,1701.192,1395.882,1701.192z"/>
			<path style="opacity:0.21;fill:#FFC999;" d="M1306.433,1653.764c-7.034,0-5.631,10.86,1.333,10.86
				C1314.8,1664.624,1313.397,1653.764,1306.433,1653.764z"/>
			<path style="opacity:0.21;fill:#FFC999;" d="M1508.387,1764.36c-5.172,0-4.14,7.985,0.981,7.985
				C1514.54,1772.345,1513.508,1764.36,1508.387,1764.36z"/>
			<path style="opacity:0.21;fill:#FFC999;" d="M1534.87,1704.979c-4.966,0-3.975,7.666,0.941,7.666
				C1540.776,1712.644,1539.786,1704.979,1534.87,1704.979z"/>
			<path style="opacity:0.21;fill:#FFC999;" d="M1402.438,1654.403c-6.207,0-4.968,9.582,1.177,9.582
				C1409.822,1663.985,1408.583,1654.403,1402.438,1654.403z"/>
			<path style="opacity:0.21;fill:#FFC999;" d="M1316.533,1549.35c-5.172,0-4.14,7.985,0.98,7.985
				C1322.685,1557.335,1321.653,1549.35,1316.533,1549.35z"/>
			<path style="opacity:0.21;fill:#FFC999;" d="M1495.058,1720.56c-6.207,0-4.968,9.582,1.176,9.582
				C1502.441,1730.142,1501.203,1720.56,1495.058,1720.56z"/>
			<path style="opacity:0.21;fill:#FFC999;" d="M1615.267,1784.213c-1.074-0.212-2.147-0.425-3.221-0.638
				c-2.758-0.546-5.239,1.978-5.253,4.597c-0.014,2.6,2.416,5.209,5.197,4.659c1.076-0.213,2.153-0.426,3.229-0.639
				c1.983-0.392,3.488-1.874,3.5-3.969C1618.73,1786.154,1617.261,1784.607,1615.267,1784.213z"/>
			<path style="opacity:0.21;fill:#FFC999;" d="M1617.448,1710.636c-6.207,0-4.968,9.582,1.177,9.582
				C1624.832,1720.218,1623.593,1710.636,1617.448,1710.636z"/>
			<path style="opacity:0.21;fill:#FFC999;" d="M1676.892,1772.687c-7.241,0-5.797,11.179,1.373,11.179
				C1685.505,1783.866,1684.061,1772.687,1676.892,1772.687z"/>
			<path style="opacity:0.21;fill:#FFC999;" d="M1772.78,1729.365c-7.655,0-6.128,11.818,1.451,11.818
				C1781.886,1741.183,1780.358,1729.365,1772.78,1729.365z"/>
			<path style="opacity:0.21;fill:#FFC999;" d="M1766.36,1787.196c-5.586,0-4.471,8.624,1.059,8.624
				C1773.005,1795.82,1771.891,1787.196,1766.36,1787.196z"/>
			<path style="opacity:0.21;fill:#FFC999;" d="M1872.25,1741.205c-5.172,0-4.14,7.985,0.981,7.985
				C1878.403,1749.19,1877.371,1741.205,1872.25,1741.205z"/>
			<path style="opacity:0.21;fill:#FFC999;" d="M1869.06,1705.777c-3.931,0-3.147,6.069,0.745,6.069
				C1873.736,1711.846,1872.952,1705.777,1869.06,1705.777z"/>
			<path style="opacity:0.21;fill:#FFC999;" d="M1942.322,1722.01c-1.73-1.77-4.265-1.864-6.302-0.536
				c-1.294,0.844-2.589,1.688-3.883,2.532c-1.304,0.85-2.023,2.395-2.288,3.877c-0.317,1.771,0.418,3.543,1.632,4.784
				c1.126,1.152,2.462,1.728,4.074,1.736c1.693,0.009,3.623-0.684,4.599-2.179c0.849-1.301,1.698-2.601,2.547-3.902
				c0.682-1.045,1.202-2.271,0.987-3.56C1943.511,1723.695,1943.082,1722.787,1942.322,1722.01z"/>
			<path style="opacity:0.21;fill:#FFC999;" d="M1981.448,1665.444c-4.758,0-3.809,7.346,0.902,7.346
				C1987.109,1672.79,1986.159,1665.444,1981.448,1665.444z"/>
			<path style="opacity:0.21;fill:#FFC999;" d="M2037.682,1632.365c-4.758,0-3.809,7.347,0.902,7.347
				C2043.342,1639.712,2042.393,1632.365,2037.682,1632.365z"/>
			<path style="opacity:0.21;fill:#FFC999;" d="M2113.743,1546.202c-4.965,0-3.974,7.666,0.941,7.666
				C2119.649,1553.868,2118.658,1546.202,2113.743,1546.202z"/>
			<path style="opacity:0.21;fill:#FFC999;" d="M2186.319,1395.752c-3.229,0.396-4.763,3.132-4.763,6.097v9.923
				c0,2.957,3.416,5.092,6.097,4.763c3.229-0.397,4.763-3.132,4.763-6.097v-9.923
				C2192.416,1397.558,2189,1395.423,2186.319,1395.752z"/>
			<path style="opacity:0.21;fill:#FFC999;" d="M1180.734,1379.213c-7.034,0-5.631,10.86,1.334,10.86
				C1189.102,1390.073,1187.699,1379.213,1180.734,1379.213z"/>
			<path style="opacity:0.21;fill:#FFC999;" d="M1161.123,1318.28c-4.552,0-3.643,7.027,0.863,7.027
				C1166.537,1325.307,1165.629,1318.28,1161.123,1318.28z"/>
			<path style="opacity:0.21;fill:#FFC999;" d="M1170.772,1398.74c-7.448,0-5.962,11.499,1.412,11.499
				C1179.631,1410.239,1178.146,1398.74,1170.772,1398.74z"/>
			<path style="opacity:0.21;fill:#FFC999;" d="M1232.981,1433.613c-0.339-1.363-0.786-2.672-2.001-3.537
				c-0.978-0.696-2.031-1.076-3.237-1.082c-1.109-0.006-2.314,0.282-3.198,1.002l-1.018,0.996c-0.588,0.757-0.947,1.61-1.079,2.558
				c-0.266,1.067-0.531,2.133-0.797,3.2c-0.376,1.511,0.314,3.229,1.15,4.464c1.084,1.603,3.007,2.409,4.874,2.419
				c1.675,0.009,3.071-0.557,4.268-1.727c0.644-0.528,1.115-1.191,1.415-1.988c0.409-0.995,0.549-2.026,0.422-3.094
				C1233.513,1435.753,1233.247,1434.683,1232.981,1433.613z"/>
			<path style="opacity:0.21;fill:#FFC999;" d="M1303.007,1520.492c-8.276,0-6.624,12.776,1.569,12.776
				C1312.851,1533.268,1311.2,1520.492,1303.007,1520.492z"/>
			<path style="opacity:0.21;fill:#FFC999;" d="M1471.727,1428.032c-8.069,0-6.459,12.457,1.529,12.457
				C1481.325,1440.489,1479.715,1428.032,1471.727,1428.032z"/>
			<path style="opacity:0.21;fill:#FFC999;" d="M1468.536,1359.526c-6.827,0-5.465,10.54,1.294,10.54
				C1476.658,1370.066,1475.296,1359.526,1468.536,1359.526z"/>
			<path style="opacity:0.21;fill:#FFC999;" d="M1544.676,1369.928c-6.207,0-4.968,9.582,1.177,9.582
				C1552.059,1379.51,1550.821,1369.928,1544.676,1369.928z"/>
			<path style="opacity:0.21;fill:#FFC999;" d="M1594.293,1393.083c-6.207,0-4.968,9.583,1.177,9.583
				C1601.677,1402.665,1600.438,1393.083,1594.293,1393.083z"/>
			<path style="opacity:0.21;fill:#FFC999;" d="M1498.386,1456.092c-6,0-4.803,9.263,1.137,9.263
				C1505.523,1465.354,1504.326,1456.092,1498.386,1456.092z"/>
			<path style="opacity:0.21;fill:#FFC999;" d="M1488.697,1405.082c-0.874,0-1.485,0.337-1.86,0.841
				c0.425-2.679-1.395-6.065-4.991-6.065c-6,0-4.803,9.263,1.137,9.263c1.8,0,2.88-0.873,3.45-2.04
				c-0.176,1.55,0.877,3.431,2.93,3.431C1492.881,1410.512,1492.179,1405.082,1488.697,1405.082z"/>
			<path style="opacity:0.21;fill:#FFC999;" d="M1531.425,1376.384c-6.414,0-5.134,9.901,1.216,9.901
				C1539.054,1386.286,1537.774,1376.384,1531.425,1376.384z"/>
			<path style="opacity:0.21;fill:#FFC999;" d="M1561.254,1419.865c-5.793,0-4.637,8.943,1.098,8.943
				C1568.145,1428.808,1566.989,1419.865,1561.254,1419.865z"/>
			<path style="opacity:0.21;fill:#FFC999;" d="M1551.605,1461.795c-2.896,0-2.318,4.471,0.549,4.471
				C1555.051,1466.266,1554.473,1461.795,1551.605,1461.795z"/>
			<path style="opacity:0.21;fill:#FFC999;" d="M1426.064,1380.376c-1.241,0-0.994,1.917,0.235,1.917
				C1427.541,1382.293,1427.293,1380.376,1426.064,1380.376z"/>
			<path style="opacity:0.21;fill:#FFC999;" d="M1612.132,1514.042c-0.737-1.643-1.824-2.918-3.385-3.832
				c-3.333-1.951-7.73-1.227-10.154,1.893c-1.483,1.908-2.966,3.816-4.449,5.724c-3.456,4.446-2.117,10.918,2.688,13.732
				c2.205,1.291,4.481,1.614,6.959,0.982c2.587-0.66,5.564-2.613,6.325-5.383c0.657-2.391,1.314-4.781,1.97-7.172
				C1612.63,1518.005,1613.022,1516.027,1612.132,1514.042z"/>
			<path style="opacity:0.21;fill:#FFC999;" d="M1719.776,1404.557c-8.482,0-6.79,13.096,1.608,13.096
				C1729.866,1417.653,1728.174,1404.557,1719.776,1404.557z"/>
			<path style="opacity:0.21;fill:#FFC999;" d="M1719.913,1524.758c-7.034,0-5.631,10.859,1.333,10.859
				C1728.281,1535.618,1726.877,1524.758,1719.913,1524.758z"/>
			<path style="opacity:0.21;fill:#FFC999;" d="M1690.319,1595.66c-5.172,0-4.14,7.985,0.981,7.985
				C1696.472,1603.645,1695.44,1595.66,1690.319,1595.66z"/>
			<path style="opacity:0.21;fill:#FFC999;" d="M1739.702,1580.512c-7.655,0-6.128,11.818,1.451,11.818
				C1748.807,1592.33,1747.28,1580.512,1739.702,1580.512z"/>
			<path style="opacity:0.21;fill:#FFC999;" d="M1769.492,1521.131c-7.448,0-5.962,11.499,1.412,11.499
				C1778.351,1532.629,1776.865,1521.131,1769.492,1521.131z"/>
			<path style="opacity:0.21;fill:#FFC999;" d="M1878.631,1507.74c-7.655,0-6.127,11.818,1.451,11.818
				C1887.737,1519.558,1886.209,1507.74,1878.631,1507.74z"/>
			<path style="opacity:0.21;fill:#FFFFFF;" d="M1371.304,1491.386c-8.896,0-7.121,13.734,1.687,13.734
				C1381.887,1505.12,1380.112,1491.386,1371.304,1491.386z"/>
			<path style="opacity:0.21;fill:#FFFFFF;" d="M1398.095,1429.364c-1.142-1.067-2.789-1.025-4.242-1.136
				c-1.173-0.09-2.203,0.161-3.172,0.817c-1.139,0.77-1.712,2.137-1.719,3.463c-0.006,1.19,0.396,2.182,1.227,3.033
				c0.988,1.011,2.206,1.412,3.611,1.305c1.415-0.108,3.112-0.054,4.216-1.081c0.59-0.444,1.029-1.005,1.317-1.685
				c0.224-0.489,0.316-0.996,0.275-1.521C1399.616,1431.222,1399.054,1430.261,1398.095,1429.364z"/>
			<path style="opacity:0.21;fill:#FFFFFF;" d="M1406.766,1392.536c-6.207,0-4.968,9.582,1.177,9.582
				C1414.15,1402.118,1412.911,1392.536,1406.766,1392.536z"/>
			<path style="opacity:0.21;fill:#FFFFFF;" d="M1412.029,1361.96c-0.207,0-0.166,0.32,0.039,0.32
				C1412.275,1362.28,1412.234,1361.96,1412.029,1361.96z"/>
			<path style="opacity:0.21;fill:#FFFFFF;" d="M1477.513,1432.805c-2.69,0-2.153,4.152,0.51,4.152
				C1480.713,1436.957,1480.176,1432.805,1477.513,1432.805z"/>
			<path style="opacity:0.21;fill:#FFFFFF;" d="M1601.362,1437.722c-8.483,0-6.79,13.095,1.608,13.095
				C1611.452,1450.817,1609.76,1437.722,1601.362,1437.722z"/>
			<path style="opacity:0.21;fill:#FFFFFF;" d="M1709.329,1496.4c-8.483,0-6.79,13.096,1.608,13.096
				C1719.42,1509.495,1717.727,1496.4,1709.329,1496.4z"/>
			<path style="opacity:0.21;fill:#FFFFFF;" d="M1690.768,1589.694c-6.206,0-4.968,9.582,1.177,9.582
				C1698.151,1599.276,1696.913,1589.694,1690.768,1589.694z"/>
			<path style="opacity:0.21;fill:#FFFFFF;" d="M1723.235,1478.532c-10.345,0-8.281,15.97,1.961,15.97
				C1735.541,1494.503,1733.477,1478.532,1723.235,1478.532z"/>
			<path style="opacity:0.21;fill:#FFFFFF;" d="M1918.164,1404.383c-9.103,0-7.287,14.054,1.725,14.054
				C1928.993,1418.437,1927.177,1404.383,1918.164,1404.383z"/>
			<path style="opacity:0.21;fill:#FFFFFF;" d="M1911.554,1339.83c-4.551,0-3.643,7.027,0.863,7.027
				C1916.968,1346.857,1916.06,1339.83,1911.554,1339.83z"/>
			<path style="opacity:0.21;fill:#FFFFFF;" d="M1990.619,1380.943c-1.029-0.926-2.11-1.496-3.429-1.879l-2.714-0.787
				c-2.491-0.722-4.993-0.194-6.384,2.181c-1.21,2.068-0.895,5.196,1.236,6.632c0.81,0.545,1.62,1.091,2.43,1.636
				c0.711,0.479,1.475,1.075,2.251,1.398c0.796,0.331,1.665,0.432,2.51,0.552c2.305,0.327,4.964-1.073,5.784-3.32
				C1993.173,1384.974,1992.484,1382.622,1990.619,1380.943z"/>
			<path style="opacity:0.21;fill:#FFFFFF;" d="M2027.762,1351.938c-3.135-0.732-6.271-1.465-9.407-2.198
				c-2.708-0.633-5.446,1.846-5.793,4.414c-0.41,3.044,1.718,5.068,4.414,5.793c3.121,0.839,6.243,1.678,9.364,2.517
				c2.77,0.744,5.626-1.97,5.974-4.552C2032.727,1354.846,2030.565,1352.593,2027.762,1351.938z"/>
			<path style="opacity:0.21;fill:#FFFFFF;" d="M2028.831,1322.761c-5.379,0-4.306,8.304,1.02,8.304
				C2035.23,1331.066,2034.157,1322.761,2028.831,1322.761z"/>
			<path style="opacity:0.21;fill:#FFFFFF;" d="M1380.536,1267.132c-10.551,0-8.446,16.29,2,16.29
				C1393.088,1283.422,1390.983,1267.132,1380.536,1267.132z"/>
			<path style="opacity:0.21;fill:#FFFFFF;" d="M1260.99,1294.228c-8.896,0-7.121,13.734,1.686,13.734
				C1271.573,1307.963,1269.797,1294.228,1260.99,1294.228z"/>
			<path style="opacity:0.21;fill:#FFFFFF;" d="M1587.789,1460.651c-3.103,0-2.484,4.791,0.588,4.791
				C1591.48,1465.442,1590.861,1460.651,1587.789,1460.651z"/>
			<path style="opacity:0.21;fill:#FFFFFF;" d="M1591.895,1369.016c-9.31,0-7.452,14.373,1.765,14.373
				C1602.969,1383.39,1601.112,1369.016,1591.895,1369.016z"/>
			<path style="opacity:0.21;fill:#FFFFFF;" d="M1505.722,1457.903c-1.364-2.448-3.985-3.115-6.563-2.37
				c-1.682,0.486-3.364,0.973-5.047,1.459c-1.597,0.462-2.797,1.979-3.475,3.421c-0.823,1.751-0.549,3.811,0.36,5.441
				c1.792,3.216,6.161,4.305,9.177,2.01l4.114-3.131C1506.404,1463.121,1507.005,1460.206,1505.722,1457.903z"/>
			<path style="opacity:0.21;fill:#FFFFFF;" d="M1569.652,1438.181l-1.292-1.388c-0.515-0.684-1.167-1.194-1.955-1.528
				c-0.567-0.26-1.156-0.366-1.764-0.318c-0.603-0.054-1.188,0.044-1.753,0.292c-0.781,0.313-1.431,0.802-1.952,1.464
				c-0.423,0.452-0.845,0.904-1.268,1.356c-0.284,0.484-0.567,0.968-0.851,1.453c-0.142,0.523-0.283,1.047-0.424,1.571
				c-0.137,1.016,0.01,2.207,0.388,3.16c0.264,0.474,0.528,0.947,0.792,1.421c0.392,0.401,0.784,0.802,1.177,1.204
				c0.484,0.283,0.968,0.567,1.452,0.85c0.763,0.35,1.554,0.493,2.373,0.429c0.543,0.07,1.07,0.006,1.58-0.194
				c0.547-0.069,1.043-0.267,1.488-0.594c0.525-0.211,0.963-0.539,1.313-0.984c0.46-0.346,0.802-0.784,1.027-1.314
				c0.347-0.448,0.56-0.951,0.637-1.511c0.21-0.511,0.282-1.04,0.217-1.588C1570.842,1440.717,1570.533,1439.127,1569.652,1438.181z
				"/>
			<path style="opacity:0.21;fill:#FFFFFF;" d="M1559.525,1401.174c-4.138,0-3.312,6.388,0.784,6.388
				C1564.447,1407.563,1563.622,1401.174,1559.525,1401.174z"/>
			<path style="opacity:0.21;fill:#FFFFFF;" d="M1524.122,1418.354c-6.207,0-4.968,9.582,1.177,9.582
				C1531.505,1427.936,1530.267,1418.354,1524.122,1418.354z"/>
			<path style="opacity:0.21;fill:#FFFFFF;" d="M1472.682,1426.993c-4.138,0-3.312,6.388,0.784,6.388
				C1477.604,1433.381,1476.778,1426.993,1472.682,1426.993z"/>
			<path style="opacity:0.21;fill:#FFFFFF;" d="M1437.122,1440.548c-7.862,0-6.293,12.138,1.49,12.138
				C1446.474,1452.685,1444.906,1440.548,1437.122,1440.548z"/>
			<path style="opacity:0.21;fill:#FFFFFF;" d="M1411.284,1398.14c-8.069,0-6.459,12.456,1.529,12.456
				C1420.882,1410.597,1419.272,1398.14,1411.284,1398.14z"/>
			<path style="opacity:0.21;fill:#FFFFFF;" d="M1359.647,1452.124c-8.069,0-6.459,12.457,1.529,12.457
				C1369.246,1464.58,1367.636,1452.124,1359.647,1452.124z"/>
			<path style="opacity:0.21;fill:#FFFFFF;" d="M1397.045,1511.871c-9.724,0-7.784,15.012,1.843,15.012
				C1408.611,1526.883,1406.671,1511.871,1397.045,1511.871z"/>
			<path style="opacity:0.21;fill:#FFFFFF;" d="M1455.781,1531.127c-9.104,0-7.287,14.054,1.725,14.054
				C1466.61,1545.181,1464.794,1531.127,1455.781,1531.127z"/>
			<path style="opacity:0.21;fill:#FFFFFF;" d="M1505.149,1517.683c-8.276,0-6.625,12.776,1.569,12.776
				C1514.994,1530.459,1513.342,1517.683,1505.149,1517.683z"/>
			<path style="opacity:0.21;fill:#FFFFFF;" d="M1648.324,1557.584c-8.276,0-6.625,12.776,1.569,12.776
				C1658.168,1570.361,1656.517,1557.584,1648.324,1557.584z"/>
			<path style="opacity:0.21;fill:#FFFFFF;" d="M1642.535,1628.717c-8.569-0.693-16.152-3.714-22.83-9.046
				c-0.926-1.14-2.264-1.971-4.064-1.971c-6.033,0-5.198,8.66,0.201,9.699c7.7,5.116,16.413,8.116,25.745,8.335
				C1646.031,1635.838,1647.168,1629.091,1642.535,1628.717z"/>
			<path style="opacity:0.21;fill:#FFFFFF;" d="M1746.863,1630.026c-8.689,0-6.955,13.415,1.647,13.415
				C1757.2,1643.441,1755.466,1630.026,1746.863,1630.026z"/>
			<path style="opacity:0.21;fill:#FFFFFF;" d="M1835.995,1575.563c-9.31,0-7.453,14.373,1.765,14.373
				C1847.07,1589.936,1845.212,1575.563,1835.995,1575.563z"/>
			<path style="opacity:0.21;fill:#FFFFFF;" d="M1819.84,1751.486c-6.414,0-5.134,9.901,1.215,9.901
				C1827.469,1761.387,1826.189,1751.486,1819.84,1751.486z"/>
			<path style="opacity:0.21;fill:#FFFFFF;" d="M1723.765,1773.887c-4.758,0-3.809,7.346,0.902,7.346
				C1729.425,1781.234,1728.476,1773.887,1723.765,1773.887z"/>
			<path style="opacity:0.21;fill:#FFFFFF;" d="M1880.669,1752.236c-8.483,0-6.79,13.095,1.608,13.095
				C1890.76,1765.331,1889.067,1752.236,1880.669,1752.236z"/>
			<path style="opacity:0.21;fill:#FFFFFF;" d="M2004.948,1687.905c-9.724,0-7.784,15.012,1.843,15.012
				C2016.516,1702.917,2014.575,1687.905,2004.948,1687.905z"/>
			<path style="opacity:0.21;fill:#FFFFFF;" d="M2035.873,1646.664c-5.379,0-4.306,8.304,1.019,8.304
				C2042.272,1654.968,2041.199,1646.664,2035.873,1646.664z"/>
			<path style="opacity:0.21;fill:#FFFFFF;" d="M2088.064,1589.496c-0.574-1.031-1.498-1.994-2.637-2.411
				c-2.297-0.839-4.847-0.252-6.413,1.685c-1.078,1.334-2.157,2.667-3.235,4.001c-2.705,3.346-1.231,8.532,2.664,10.154
				c1.532,0.638,3.431,0.651,4.973,0.038c1.104-0.443,2.023-1.133,2.76-2.069c0.73-0.941,1.177-2,1.34-3.178
				c0.41-1.615,0.821-3.23,1.231-4.845C2089.028,1591.768,2088.586,1590.433,2088.064,1589.496z"/>
			<path style="opacity:0.21;fill:#FFFFFF;" d="M2138.523,1528.04c-0.067-0.789-0.318-1.506-0.752-2.149
				c-0.33-0.73-0.827-1.336-1.492-1.816c-0.459-0.269-0.919-0.538-1.378-0.807c-0.724-0.332-1.475-0.467-2.251-0.406
				c-1.243-0.007-2.594,0.316-3.585,1.123c-1.196,0.974-2.242,2.392-2.351,3.984l-0.16,2.326c-0.137,1.058-0.011,2.085,0.378,3.079
				c0.257,0.462,0.515,0.923,0.772,1.385c0.675,0.897,1.528,1.564,2.562,2.001c0.744,0.341,1.514,0.48,2.313,0.418
				c0.79,0.07,1.555-0.057,2.297-0.382c0.784-0.278,1.441-0.726,1.971-1.345c0.644-0.528,1.115-1.191,1.415-1.989
				c0.409-0.995,0.55-2.026,0.422-3.094C2138.63,1529.592,2138.577,1528.816,2138.523,1528.04z"/>
			<path style="opacity:0.21;fill:#FFFFFF;" d="M1214.32,1490.815c0.384-0.774,0.62-1.607,0.507-2.519
				c-0.202-1.642-1.3-3.113-2.839-3.741c-0.947-0.386-1.894-0.772-2.842-1.158c-1.249-0.509-2.682-0.21-3.637,0.724
				c-0.95,0.928-1.315,2.387-0.802,3.646c0.383,0.941,0.767,1.882,1.151,2.823c0.994,2.438,3.678,3.368,5.926,2.531
				C1213.128,1492.796,1213.975,1491.943,1214.32,1490.815z"/>
			<path style="opacity:0.21;fill:#FFFFFF;" d="M1238.836,1553.423l-18.712-2.826c-5.126-0.774-6.24,7.462-1.077,7.974
				c6.281,0.623,12.561,1.246,18.842,1.868C1242.41,1560.888,1243.365,1554.107,1238.836,1553.423z"/>
			<path style="opacity:0.21;fill:#FFFFFF;" d="M1275.229,1595.937c-7.241,0-5.796,11.179,1.373,11.179
				C1283.843,1607.116,1282.398,1595.937,1275.229,1595.937z"/>
		</g>
	</g>
</g>
</svg>
